<?xml version="1.0" encoding="UTF-8" standalone="no"?>
<!-- Created with Inkscape (http://www.inkscape.org/) -->

<svg
   width="100mm"
   height="80mm"
   viewBox="0 0 100 80"
   version="1.1"
   id="svg5"
   sodipodi:docname="logoFRMobileBlanc.svg"
   inkscape:version="1.1.2 (0a00cf5339, 2022-02-04)"
   xmlns:inkscape="http://www.inkscape.org/namespaces/inkscape"
   xmlns:sodipodi="http://sodipodi.sourceforge.net/DTD/sodipodi-0.dtd"
   xmlns="http://www.w3.org/2000/svg"
   xmlns:svg="http://www.w3.org/2000/svg">
  <sodipodi:namedview
     id="namedview174391"
     pagecolor="#ffffff"
     bordercolor="#666666"
     borderopacity="1.0"
     inkscape:pageshadow="2"
     inkscape:pageopacity="0.0"
     inkscape:pagecheckerboard="0"
     inkscape:document-units="mm"
     showgrid="false"
     inkscape:zoom="1.8101934"
     inkscape:cx="256.87864"
     inkscape:cy="173.18592"
     inkscape:window-width="1850"
     inkscape:window-height="1016"
     inkscape:window-x="1990"
     inkscape:window-y="27"
     inkscape:window-maximized="1"
     inkscape:current-layer="layer1" />
  <defs
     id="defs2">
    <rect
       x="23.825047"
       y="34.002663"
       width="416.19711"
       height="371.64136"
       id="rect3224" />
  </defs>
  <g
     id="layer1">
    <g
       id="g174549" />
    <g
       id="g174930"
       transform="matrix(1.0124616,0,0,1.0089042,-0.77501055,0.92689698)">
      <path
         d="m 13.15052,14.963323 6.901212,-1.444183 q -0.05512,0.396875 -0.187412,1.25677 -0.121267,0.848871 -0.242536,1.719791 -0.110241,0.87092 -0.110241,1.223698 0,-0.03307 -1.091407,-0.165365 -1.091406,-0.132292 -2.22691,-0.242535 -1.135502,-0.121267 -3.340362,-0.341753 -0.529167,2.326128 -1.620572,4.17821 2.337151,-1.047309 3.671093,-1.190624 0.937064,-0.110244 2.348174,-0.110244 1.1796,0 2.061546,0.05512 0.881944,0.0441 1.521352,0.110243 0.63941,0.05512 0.870921,0.07717 l -2.822221,4.806596 q -0.132291,-0.15434 -0.551217,-0.496094 -0.407897,-0.341754 -1.245745,-0.760677 -0.837846,-0.418923 -1.9513,-0.61736 -0.738629,-0.143317 -1.378038,-0.187413 -0.628386,-0.05512 -1.444184,-0.05512 -0.915017,0 -2.3481761,0.132292 -0.6835066,0.771702 -1.2788188,1.245745 -0.5842878,0.463021 -0.8268226,0.606338 0.044097,-0.154339 0.1322916,-0.61736 0.099219,-0.463021 0.1653646,-0.937067 -0.6614581,0.110244 -1.0142357,0.198437 -0.3527777,0.08819 -0.4960935,0.132292 -0.033073,0 1.5985236,-0.926042 0.4299476,-2.458418 0.4299476,-4.850691 0,-0.396875 -0.044097,-1.190625 Q 7.9911471,16.51775 7.4730051,16.473653 6.9658872,16.418531 6.7123283,16.396482 6.4697938,16.374435 6.370575,16.363409 L 8.5864594,15.911413 Q 8.5423623,15.580684 8.4100706,14.875129 8.2226575,13.982161 7.4399322,12.008811 7.0761301,11.953689 6.84462,11.920616 q -0.220486,-0.03307 -0.3197048,-0.0441 -0.088194,-0.01103 -0.1322917,-0.02205 0.1102432,0 0.9039926,-0.187413 Q 6.9658872,10.895357 6.668231,10.300045 6.370575,9.6937082 6.2382834,9.4511737 L 12.20243,7.0148033 q 0.08819,0.3417533 0.264583,1.1796001 0.176389,0.8378468 0.341754,1.9843746 0.54019,-0.165365 1.289843,-0.4740454 1.466233,-0.5732637 2.403297,-1.5544265 0.94809,-0.9811626 1.278819,-1.5213534 l 3.737239,3.7703113 q -0.760677,0.418923 -2.458421,1.124478 -1.686716,0.694531 -3.450605,0.959115 -0.826823,0.110242 -1.697742,0.110242 -0.540191,0 -0.804774,-0.02205 0.06615,0.804774 0.06615,1.631596 0,0.518142 -0.02205,0.760677 z"
         style="font-size:85.3333px;line-height:0.95;font-family:Karate;-inkscape-font-specification:Karate;text-align:center;letter-spacing:0px;word-spacing:0px;white-space:pre;fill:#ffffff;stroke-width:0.264583"
         id="path174450" />
      <path
         d="m 25.751296,18.215492 q 0.02204,2.789148 2.039496,4.398695 2.017448,1.598526 3.351387,2.105642 -0.595313,0 -1.9513,-0.154339 -1.344967,-0.165365 -3.141927,-0.782725 -1.79696,-0.628386 -3.141924,-2.006424 -1.333942,-1.378037 -1.333942,-3.649043 0,-2.965537 2.248958,-4.486891 2.259981,-1.532378 4.530987,-1.929252 2.271006,-0.396875 3.395485,-0.4079 -0.661458,0.187414 -2.006422,0.859896 -1.333942,0.672482 -2.667881,2.215884 -1.322917,1.543402 -1.322917,3.836457 z"
         style="font-size:85.3333px;line-height:0.95;font-family:Karate;-inkscape-font-specification:Karate;text-align:center;letter-spacing:0px;word-spacing:0px;white-space:pre;fill:#ffffff;stroke-width:0.264583"
         id="path174452" />
      <path
         d="m 36.125164,11.821398 q -0.121267,-0.0882 -0.38585,-0.242535 -0.253561,-0.165364 -0.330729,-0.198437 0.650433,0 1.642621,0.176388 1.378037,-0.341753 2.689928,-0.341753 -0.143317,0.0441 -0.496093,0.198438 -0.341755,0.143315 -0.837849,0.46302 1.267796,0.374826 2.293057,1.069357 1.036283,0.683507 1.730814,1.918229 0.694531,1.223697 0.694531,3.009634 0,2.965537 -1.807985,4.519963 -1.79696,1.554427 -3.61597,1.97335 -1.807986,0.418923 -2.700954,0.440973 0.198437,-0.07717 0.63941,-0.308681 0.451996,-0.242536 1.036283,-0.683506 -0.903991,-0.286634 -1.64262,-0.672484 -0.73863,-0.396875 -1.499304,-1.135502 -0.749655,-0.738629 -1.223698,-1.785937 -0.463021,-1.058333 -0.496094,-2.502516 0,-2.436371 1.212673,-3.825433 1.223698,-1.400086 3.097829,-2.072568 z m 1.157552,0.926041 q -0.870921,0.848871 -1.444183,2.116666 -0.56224,1.25677 -0.56224,2.943488 0.01103,1.367013 0.308679,2.458419 0.308681,1.080382 0.738629,1.841059 0.429948,0.760677 0.892969,1.256768 1.014235,-0.937064 1.675694,-2.293053 0.672481,-1.367013 0.672481,-3.197047 -0.02204,-2.899391 -2.282029,-5.1263 z"
         style="font-size:85.3333px;line-height:0.95;font-family:Karate;-inkscape-font-specification:Karate;text-align:center;letter-spacing:0px;word-spacing:0px;white-space:pre;fill:#ffffff;stroke-width:0.264583"
         id="path174454" />
      <path
         d="m 46.653368,21.809414 q 0.804776,-0.352778 1.400088,-0.562239 0.782725,-0.297656 2.259981,-0.297656 0.804775,0 1.510329,0.06615 0.705556,0.06615 1.014235,0.110244 l -0.881943,3.704165 q -0.56224,-0.330729 -1.609548,-0.826823 -1.047308,-0.507119 -1.708767,-0.529167 -0.220485,-0.02204 -0.771702,-0.02204 -0.804772,0 -2.436368,0.08819 -0.474046,0.573265 -0.859896,0.915017 -0.374827,0.330729 -0.540191,0.440973 0.0441,0 0.341754,-1.278819 -0.308682,0.02204 -0.463021,0.03307 -0.154342,0.01103 -0.341754,0.03307 -0.187413,0.01103 -0.231511,0.02204 -0.03307,0 -0.06615,0 0.110244,-0.08819 0.440974,-0.308682 0.330729,-0.220485 0.815797,-0.507116 0.198438,-0.94809 0.352777,-2.127691 0.165365,-1.1796 0.165365,-2.182811 0,-0.771701 -0.08819,-1.311892 -0.121266,-0.749652 -0.529166,-1.653645 -0.396875,-0.903993 -0.760678,-1.521354 -0.363802,-0.628385 -0.540189,-0.892968 l 4.674301,-1.708766 q 0.110244,0.551215 0.264584,1.796961 0.165364,1.234721 0.165364,2.623783 0,1.234722 -0.132291,1.962326 -0.374825,2.182811 -1.444184,3.935675 z"
         style="font-size:85.3333px;line-height:0.95;font-family:Karate;-inkscape-font-specification:Karate;text-align:center;letter-spacing:0px;word-spacing:0px;white-space:pre;fill:#ffffff;stroke-width:0.264583"
         id="path174456" />
      <path
         d="m 58.008399,17.399694 5.192445,-1.080382 q -0.09922,0.683507 -0.253558,1.796961 -0.15434,1.113455 -0.15434,1.367014 0,-0.0441 -1.245745,-0.176389 -1.245746,-0.143316 -3.73724,-0.385851 -0.418923,1.774913 -1.223698,3.130901 1.807985,-0.782725 2.756078,-0.903992 0.540189,-0.06615 1.686716,-0.06615 1.223697,0 2.105641,0.07717 0.892969,0.06615 1.311894,0.110243 L 62.3189,24.874171 q -0.09922,-0.121269 -0.396875,-0.363802 -0.297656,-0.253561 -0.937064,-0.573265 -0.63941,-0.330729 -1.466233,-0.485068 -0.926042,-0.17639 -2.116664,-0.17639 -0.881947,0 -1.785938,0.110244 -0.507119,0.584287 -0.948089,0.937064 -0.429948,0.341754 -0.606338,0.440973 0,0 0.220485,-1.168577 -0.551214,0.0882 -0.782724,0.154342 -0.231511,0.05512 -0.341752,0.08819 -0.09922,0 1.190622,-0.672483 0.319707,-1.984373 0.319707,-3.638018 0,-0.297656 -0.01103,-0.485069 0,-0.187413 -0.01103,-0.418924 -0.628383,-0.05512 -0.981163,-0.08819 -0.341751,-0.03307 -0.496094,-0.0441 -0.143314,-0.01103 -0.220485,-0.02205 l 1.653646,-0.341754 q -0.03307,-0.440972 -0.143317,-0.793749 -0.209462,-1.003212 -0.716579,-2.116666 -0.330729,-0.05512 -0.529166,-0.08819 -0.187413,-0.0441 -0.264584,-0.05512 0.03307,0 0.683506,-0.132292 -0.275606,-0.661458 -0.485068,-1.069357 -0.209463,-0.418923 -0.308682,-0.595312 l 4.475867,-1.830034 q 0.06615,0.253559 0.187415,0.881944 0.121266,0.628385 0.253558,1.510329 0.308681,-0.110243 0.507119,-0.176388 0.198434,-0.07717 0.474043,-0.187414 1.113454,-0.440972 1.807985,-1.168575 0.694531,-0.738628 0.937067,-1.135503 l 2.82222,2.822221 q -0.253558,0.132291 -0.859895,0.418923 -0.595313,0.286632 -1.631596,0.650434 -1.02526,0.352777 -1.951302,0.485069 -0.507119,0.07717 -1.267796,0.07717 -0.407897,0 -0.606335,-0.02205 0.0441,0.793749 0.0441,1.234721 0,0.385851 -0.02204,0.56224 z"
         style="font-size:85.3333px;line-height:0.95;font-family:Karate;-inkscape-font-specification:Karate;text-align:center;letter-spacing:0px;word-spacing:0px;white-space:pre;fill:#ffffff;stroke-width:0.264583"
         id="path174458" />
      <path
         d="m 73.949539,11.62296 q 0.09922,-0.09922 0.121269,-0.132291 0.02204,-0.03307 0.03307,-0.0441 -0.01103,0 -0.0441,0.198438 1.785937,0.253559 3.472654,0.903992 1.697743,0.63941 2.921441,2.017447 1.234721,1.378038 1.234721,3.516752 0,2.315104 -1.422136,3.737238 -1.422132,1.422135 -3.340362,2.083593 -1.918229,0.650433 -3.340364,0.815798 -1.41111,0.165365 -2.050518,0.17639 0.308679,-0.08819 1.047308,-0.396875 0.738627,-0.308682 1.56545,-0.837848 l -3.704164,1.102431 q -0.110244,-0.56224 -0.286632,-1.830033 -0.165364,-1.27882 -0.165364,-2.667882 0,-1.433159 0.253558,-2.414322 0.341754,-1.355989 1.256771,-2.855294 0.926042,-1.499305 1.97335,-2.833245 -0.485069,-0.297656 -0.837848,-0.451996 -0.352777,-0.165365 -0.496094,-0.220486 0.738629,0 1.807985,0.132291 z m 0.540192,11.807025 q 1.322917,-0.959112 2.171787,-2.293053 0.848871,-1.333941 0.848871,-3.141926 0,-0.970138 -0.330729,-1.841058 -0.33073,-0.87092 -0.859896,-1.554427 -0.518142,-0.683506 -1.168575,-1.245746 -0.650433,-0.562239 -1.223698,-0.915017 -0.429948,2.326128 -0.429948,4.266405 0,1.1796 0.198438,2.160763 0.61736,3.064755 0.79375,4.564059 z"
         style="font-size:85.3333px;line-height:0.95;font-family:Karate;-inkscape-font-specification:Karate;text-align:center;letter-spacing:0px;word-spacing:0px;white-space:pre;fill:#ffffff;stroke-width:0.264583"
         id="path174460" />
      <path
         d="m 86.814898,17.399694 5.192445,-1.080382 q -0.09922,0.683507 -0.253558,1.796961 -0.154342,1.113455 -0.154342,1.367014 0,-0.0441 -1.245745,-0.176389 -1.245746,-0.143316 -3.737237,-0.385851 -0.418926,1.774913 -1.223698,3.130901 1.807985,-0.782725 2.756074,-0.903992 0.540192,-0.06615 1.686719,-0.06615 1.223698,0 2.105642,0.07717 0.892968,0.06615 1.311891,0.110243 L 91.1254,24.874171 q -0.09922,-0.121269 -0.396875,-0.363802 -0.297656,-0.253561 -0.937067,-0.573265 -0.639408,-0.330729 -1.466231,-0.485068 -0.926042,-0.17639 -2.116667,-0.17639 -0.881943,0 -1.785937,0.110244 -0.507116,0.584287 -0.948089,0.937064 -0.429948,0.341754 -0.606335,0.440973 0,0 0.220485,-1.168577 -0.551215,0.0882 -0.782725,0.154342 -0.23151,0.05512 -0.341754,0.08819 -0.09922,0 1.190625,-0.672483 0.319704,-1.984373 0.319704,-3.638018 0,-0.297656 -0.01103,-0.485069 0,-0.187413 -0.01103,-0.418924 -0.628385,-0.05512 -0.981162,-0.08819 -0.341754,-0.03307 -0.496094,-0.0441 -0.143317,-0.01103 -0.220488,-0.02205 l 1.653646,-0.341754 q -0.03307,-0.440972 -0.143314,-0.793749 -0.209463,-1.003212 -0.716582,-2.116666 -0.330729,-0.05512 -0.529166,-0.08819 -0.187413,-0.0441 -0.264584,-0.05512 0.03307,0 0.683509,-0.132292 -0.275608,-0.661458 -0.485071,-1.069357 -0.20946,-0.418923 -0.308679,-0.595312 l 4.475866,-1.830034 q 0.06615,0.253559 0.187413,0.881944 0.121266,0.628385 0.253558,1.510329 0.308681,-0.110243 0.507119,-0.176388 0.198437,-0.07717 0.474046,-0.187414 1.113454,-0.440972 1.807985,-1.168575 0.694529,-0.738628 0.937064,-1.135503 l 2.822221,2.822221 q -0.253559,0.132291 -0.859896,0.418923 -0.59531,0.286632 -1.631596,0.650434 -1.02526,0.352777 -1.951302,0.485069 -0.507116,0.07717 -1.267793,0.07717 -0.4079,0 -0.606338,-0.02205 0.0441,0.793749 0.0441,1.234721 0,0.385851 -0.02204,0.56224 z"
         style="font-size:85.3333px;line-height:0.95;font-family:Karate;-inkscape-font-specification:Karate;text-align:center;letter-spacing:0px;word-spacing:0px;white-space:pre;fill:#ffffff;stroke-width:0.264583"
         id="path174462" />
      <path
         d="m 19.384762,42.885848 q 2.304079,0.937067 3.086804,1.5875 0.727604,0.573265 1.499306,1.554427 0.782725,0.970137 1.278819,1.763887 0.507116,0.782727 0.705554,1.124479 l -4.045919,1.058333 q -0.121266,-0.275608 -0.385849,-0.826822 -0.264584,-0.551215 -0.815798,-1.56545 -0.551217,-1.014235 -1.014235,-1.686719 -0.804775,-1.1796 -1.918229,-2.171787 -0.110244,0.0441 -0.286631,0.132292 -0.407901,1.245745 -1.245749,2.579687 -0.82682,1.333939 -1.510329,2.20486 -0.672481,0.859893 -0.992186,1.223696 0.132292,-0.584288 0.341753,-1.896179 0.209462,-1.322917 0.264584,-2.778125 -0.727604,0.275608 -1.135503,0.429948 -0.396875,0.154342 -0.584288,0.220488 0.187413,-0.110244 0.617361,-0.396875 0.440972,-0.297657 1.10243,-0.815801 0,-1.355987 -0.209462,-2.193835 -0.187413,-0.815798 -0.529167,-1.664668 -0.341753,-0.848871 -0.650433,-1.488281 -0.297656,-0.639411 -0.440972,-0.903994 l 4.872742,-1.830033 q 0.110241,0.562239 0.275606,1.79696 0.176389,1.223698 0.176389,2.689931 v 0.451996 q 0.09922,-0.08819 0.275606,-0.308682 0.73863,-0.926041 1.190625,-2.171787 0.463021,-1.256768 0.617363,-1.896179 l 3.836456,1.058334 q -0.396875,0.672481 -1.300869,1.940277 -0.892966,1.25677 -1.97335,2.105641 -0.584287,0.418923 -1.102429,0.672481 z"
         style="font-size:85.3333px;line-height:0.95;font-family:Karate;-inkscape-font-specification:Karate;text-align:center;letter-spacing:0px;word-spacing:0px;white-space:pre;fill:#ffffff;stroke-width:0.264583"
         id="path174464" />
      <path
         d="m 35.160535,42.974044 q -0.132291,-0.297656 -0.385849,-0.716579 -0.451996,-0.727604 -1.466231,-1.631598 -0.694532,1.223698 -0.992188,1.763887 -0.286631,0.540192 -0.661458,1.400088 1.311891,-0.15434 3.505726,-0.815798 z m -4.134111,3.252168 q -0.02204,0.474044 -0.02204,1.444184 0,0.760677 0.03307,1.389062 0.03307,0.628385 0.05512,0.892969 l -4.101039,-0.859896 q 0.03307,-0.308682 0.143315,-0.981162 0.110243,-0.672484 0.352779,-1.675694 -0.617363,-0.05512 -1.102431,-0.143317 -0.474046,-0.08819 -0.661459,-0.132291 L 26.71593,42.8638 q 0.198437,0.08819 0.760677,0.286631 0.562239,0.187415 1.091406,0.319707 0.220485,-0.385853 0.584287,-0.870921 0.881944,-1.080381 3.230121,-2.756075 -0.4079,-0.319704 -0.650433,-0.496094 -0.242536,-0.187412 -0.374827,-0.286631 -0.132292,-0.09922 -0.198438,-0.143316 l 4.365622,-2.282032 q 0.253561,0.330729 0.760677,1.14653 0.518142,0.804772 1.091407,2.072568 0.584287,1.267794 0.716579,2.491492 0.02204,0.176387 0.02204,0.540189 0,0.992187 -0.286633,2.193838 -0.286631,1.190624 -0.639408,2.127689 -0.341755,0.926041 -0.639411,1.5875 -0.297656,0.661458 -0.418922,0.915016 v -0.595312 q 0,-1.278819 -0.132292,-2.678904 -0.132292,-1.411113 -0.540192,-2.667881 -2.094616,1.631595 -4.431768,2.458418 z"
         style="font-size:85.3333px;line-height:0.95;font-family:Karate;-inkscape-font-specification:Karate;text-align:center;letter-spacing:0px;word-spacing:0px;white-space:pre;fill:#ffffff;stroke-width:0.264583"
         id="path174466" />
      <path
         d="m 43.087007,37.04297 q 1.609548,0.154339 2.987585,0.61736 1.378038,0.463021 2.293054,1.43316 0.926042,0.959115 0.926042,2.436371 0,1.841058 -3.230118,3.318314 2.072568,0.56224 2.932462,1.245746 1.058333,0.826823 1.697744,1.675693 0.650433,0.837848 0.859895,1.234721 l -4.045918,1.058333 q -0.0441,-0.242533 -0.330729,-0.903991 -0.286634,-0.672484 -0.959115,-1.642621 -0.749652,-1.113454 -1.830035,-1.984375 -1.422133,0.463021 -2.414321,0.694531 -0.529166,0.892969 -1.113453,1.686719 -0.573265,0.793747 -0.97014,1.278819 -0.38585,0.485068 -0.551215,0.672481 0.07717,-0.352777 0.231511,-1.245746 0.154339,-0.892969 0.242533,-1.940277 -0.507117,0.09922 -0.606335,0.121267 -0.08819,0.01103 -0.165365,0.02204 0.03307,0 0.79375,-0.319704 0.08819,-1.212675 0.08819,-1.918229 0,-1.289844 -0.187413,-2.149739 -0.220485,-1.069356 -0.716579,-2.259981 -0.496093,-1.190625 -0.79375,-1.796963 L 40.91522,37.32959 q -0.529166,-0.20946 -0.738629,-0.275606 -0.20946,-0.06615 -0.319704,-0.09922 0.09922,-0.01103 0.374827,-0.02204 0.286631,-0.01103 0.683506,-0.01103 0.143317,0 0.440973,0.01103 0.308679,0.01103 0.573262,0.02204 l 1.058334,-0.4079 q 0.01103,0 0.09922,0.496094 z m 0.06615,7.606768 q -0.121266,-0.0882 -0.297656,-0.17639 -0.06615,0.17639 -0.110244,0.275608 -0.04409,0.08819 -0.132292,0.286631 0.132292,-0.09922 0.264584,-0.187412 0.143317,-0.09922 0.275608,-0.198437 z m 0.451996,-0.38585 q 1.5875,-1.400088 1.620573,-2.734027 0,-1.521354 -1.918229,-2.910417 0.132291,1.455209 0.132291,2.414323 0,1.433158 -0.242533,2.41432 -0.121269,0.418926 -0.23151,0.705557 0.363802,0.08819 0.639408,0.110244 z"
         style="font-size:85.3333px;line-height:0.95;font-family:Karate;-inkscape-font-specification:Karate;text-align:center;letter-spacing:0px;word-spacing:0px;white-space:pre;fill:#ffffff;stroke-width:0.264583"
         id="path174468" />
      <path
         d="m 60.902279,42.974044 q -0.132292,-0.297656 -0.385853,-0.716579 -0.451995,-0.727604 -1.46623,-1.631598 -0.694532,1.223698 -0.992188,1.763887 -0.286631,0.540192 -0.661458,1.400088 1.311891,-0.15434 3.505729,-0.815798 z m -4.134115,3.252168 q -0.02204,0.474044 -0.02204,1.444184 0,0.760677 0.03307,1.389062 0.03307,0.628385 0.05512,0.892969 l -4.101039,-0.859896 q 0.03307,-0.308682 0.143317,-0.981162 0.110241,-0.672484 0.352777,-1.675694 -0.61736,-0.05512 -1.102432,-0.143317 -0.474043,-0.08819 -0.661458,-0.132291 L 52.457671,42.8638 q 0.198437,0.08819 0.760677,0.286631 0.562239,0.187415 1.091406,0.319707 0.220485,-0.385853 0.584287,-0.870921 0.881944,-1.080381 3.230121,-2.756075 -0.4079,-0.319704 -0.650433,-0.496094 -0.242536,-0.187412 -0.374828,-0.286631 -0.132291,-0.09922 -0.198437,-0.143316 l 4.365625,-2.282032 q 0.253558,0.330729 0.760674,1.14653 0.518144,0.804772 1.091407,2.072568 0.584287,1.267794 0.716578,2.491492 0.02204,0.176387 0.02204,0.540189 0,0.992187 -0.286633,2.193838 -0.286631,1.190624 -0.639408,2.127689 -0.341755,0.926041 -0.639411,1.5875 -0.297656,0.661458 -0.418923,0.915016 v -0.595312 q 0,-1.278819 -0.132291,-2.678904 -0.132292,-1.411113 -0.54019,-2.667881 -2.094618,1.631595 -4.43177,2.458418 z"
         style="font-size:85.3333px;line-height:0.95;font-family:Karate;-inkscape-font-specification:Karate;text-align:center;letter-spacing:0px;word-spacing:0px;white-space:pre;fill:#ffffff;stroke-width:0.264583"
         id="path174470" />
      <path
         d="m 68.75158,40.769184 q -0.198438,0.02204 -0.606338,0.02204 -1.267793,0 -2.535589,-0.242536 -1.267794,-0.253558 -1.863106,-0.418923 l 2.02847,-3.318314 q 0.418926,0.209463 1.311895,0.573265 0.892966,0.363802 2.006422,0.606335 0.05512,-0.429948 0.06615,-0.661458 0.01103,-0.242533 0.03307,-0.650434 0.03307,-0.418922 0.03307,-0.485068 0,-0.07717 0,-0.121269 0.09922,0.209462 0.374825,0.782727 0.275608,0.56224 0.595312,1.267794 2.050521,0 3.715189,-0.297657 1.675694,-0.297656 2.38125,-0.496093 -0.716579,0.485071 -2.259983,1.389062 -1.532377,0.892969 -3.15295,1.510329 0.573265,1.852083 0.606338,3.108854 0,1.212673 -0.496094,2.700954 -0.485069,1.488279 -0.959115,2.458418 -0.46302,0.959115 -0.705556,1.367013 l -3.847481,-1.918227 q 0.440973,-0.429948 1.245748,-1.543402 0.804773,-1.124479 1.378038,-2.877343 0.319704,-0.959115 0.650433,-2.756075 z"
         style="font-size:85.3333px;line-height:0.95;font-family:Karate;-inkscape-font-specification:Karate;text-align:center;letter-spacing:0px;word-spacing:0px;white-space:pre;fill:#ffffff;stroke-width:0.264583"
         id="path174472" />
      <path
         d="m 80.536558,42.499998 5.192445,-1.080381 q -0.09922,0.683506 -0.253558,1.79696 -0.154339,1.113457 -0.154339,1.367015 0,-0.0441 -1.245749,-0.17639 -1.245745,-0.143314 -3.737237,-0.38585 -0.418922,1.774912 -1.223697,3.130902 1.807985,-0.782725 2.756074,-0.903994 0.540192,-0.06615 1.686719,-0.06615 1.223698,0 2.105641,0.07717 0.892969,0.06615 1.311892,0.110244 l -2.127689,3.604945 q -0.09922,-0.121266 -0.396875,-0.363802 -0.297657,-0.253558 -0.937065,-0.573264 -0.63941,-0.33073 -1.466233,-0.485069 -0.926042,-0.176387 -2.116667,-0.176387 -0.881943,0 -1.785935,0.110241 -0.507118,0.584288 -0.948089,0.937067 -0.429948,0.341752 -0.606338,0.440971 0,0 0.220486,-1.168575 -0.551215,0.08819 -0.782725,0.154339 -0.231511,0.05512 -0.341755,0.08819 -0.09922,0 1.190625,-0.672481 0.319707,-1.984375 0.319707,-3.638021 0,-0.297653 -0.01103,-0.485068 0,-0.187413 -0.01103,-0.418923 -0.628386,-0.05512 -0.981162,-0.08819 -0.341755,-0.03307 -0.496094,-0.0441 -0.143317,-0.01103 -0.220485,-0.02204 l 1.653645,-0.341754 q -0.03307,-0.440973 -0.143316,-0.79375 -0.209463,-1.00321 -0.716579,-2.116666 -0.33073,-0.05512 -0.529167,-0.08819 -0.187415,-0.0441 -0.264583,-0.05512 0.03307,0 0.683506,-0.132291 -0.275609,-0.661459 -0.485069,-1.069359 -0.209463,-0.418923 -0.308681,-0.595312 l 4.475866,-1.830033 q 0.06615,0.253558 0.187412,0.881943 0.121269,0.628386 0.253561,1.510329 0.308679,-0.110241 0.507116,-0.176387 0.198438,-0.07717 0.474046,-0.187415 1.113454,-0.44097 1.807985,-1.168574 0.694532,-0.73863 0.937065,-1.135505 l 2.822223,2.822223 q -0.253561,0.132292 -0.859896,0.418923 -0.595313,0.286631 -1.631598,0.650433 -1.025258,0.352777 -1.9513,0.485069 -0.507119,0.07717 -1.267796,0.07717 -0.407897,0 -0.606335,-0.02204 0.0441,0.79375 0.0441,1.23472 0,0.385853 -0.02204,0.56224 z"
         style="font-size:85.3333px;line-height:0.95;font-family:Karate;-inkscape-font-specification:Karate;text-align:center;letter-spacing:0px;word-spacing:0px;white-space:pre;fill:#ffffff;stroke-width:0.264583"
         id="path174474" />
      <path
         d="m 15.906595,66.244315 q 0.03307,2.061543 1.036285,3.693141 1.014236,1.62057 2.348175,2.689929 1.333942,1.058333 2.337152,1.5875 1.014235,0.529164 1.455208,0.705554 -0.79375,0 -2.568662,-0.198438 -1.774913,-0.209463 -4.17821,-1.036283 -2.392273,-0.826823 -4.189234,-2.689931 -1.796961,-1.863106 -1.796961,-4.883764 0,-3.957725 2.998609,-5.986195 3.009633,-2.028473 6.030294,-2.546615 3.03168,-0.529166 4.519962,-0.540189 -0.496094,0.143314 -1.631596,0.628383 -1.124479,0.485071 -2.623783,1.565452 -1.499306,1.069356 -2.623785,2.844268 -1.113454,1.76389 -1.113454,4.167188 z"
         style="font-size:85.3333px;line-height:0.95;font-family:Karate;-inkscape-font-specification:Karate;text-align:center;letter-spacing:0px;word-spacing:0px;white-space:pre;fill:#ffffff;stroke-width:0.264583"
         id="path174476" />
      <path
         d="m 33.269868,68.074348 q -0.132289,-0.297657 -0.38585,-0.716579 -0.451996,-0.727605 -1.466231,-1.631596 -0.694531,1.223695 -0.992187,1.763887 -0.286631,0.540192 -0.661459,1.400085 1.311892,-0.154339 3.505727,-0.815797 z m -4.134112,3.252168 q -0.02204,0.474046 -0.02204,1.444183 0,0.760677 0.03307,1.389062 0.03307,0.628386 0.05512,0.892969 l -4.101039,-0.859896 q 0.03307,-0.308678 0.143314,-0.981162 0.110244,-0.672483 0.35278,-1.675693 -0.617363,-0.05512 -1.102432,-0.143317 -0.474043,-0.08819 -0.661458,-0.132292 l 0.992187,-3.296264 q 0.198438,0.08819 0.760677,0.286631 0.56224,0.187413 1.091407,0.319704 0.220485,-0.38585 0.584287,-0.870918 0.881943,-1.080384 3.230121,-2.756077 -0.407901,-0.319704 -0.650434,-0.496094 -0.242535,-0.187412 -0.374827,-0.286631 -0.132292,-0.09922 -0.198437,-0.143317 l 4.365622,-2.282029 q 0.253561,0.33073 0.760677,1.146527 0.518144,0.804776 1.091406,2.072569 0.584288,1.267793 0.716579,2.491491 0.02204,0.17639 0.02204,0.540192 0,0.992187 -0.286634,2.193835 -0.286631,1.190625 -0.639408,2.127689 -0.341754,0.926042 -0.63941,1.5875 -0.297657,0.661458 -0.418923,0.915017 v -0.59531 q 0,-1.278821 -0.132292,-2.678906 -0.132291,-1.411111 -0.540192,-2.667881 -2.094616,1.631595 -4.431768,2.458418 z"
         style="font-size:85.3333px;line-height:0.95;font-family:Karate;-inkscape-font-specification:Karate;text-align:center;letter-spacing:0px;word-spacing:0px;white-space:pre;fill:#ffffff;stroke-width:0.264583"
         id="path174478" />
      <path
         d="m 44.040611,70.631985 q -0.73863,-1.444183 -1.543402,-2.282029 -0.606338,-0.628385 -1.168577,-1.058333 -0.0441,0.418922 -0.08819,0.628385 -0.275606,1.5875 -0.903991,2.910414 -0.628386,1.311894 -1.300869,2.171787 -0.672481,0.848874 -1.168575,1.311895 -0.485071,0.451995 -0.694531,0.606335 0.110241,-0.38585 0.330729,-1.300867 0.231511,-0.926041 0.451996,-2.315104 0.23151,-1.389062 0.23151,-2.678906 0,-0.7717 -0.08819,-1.311892 -0.17639,-1.102428 -0.948092,-2.557637 -0.319704,-0.143316 -0.59531,-0.253558 -0.264584,-0.121269 -0.35278,-0.154342 0.06615,-0.01103 0.187415,-0.01103 0.121267,-0.01103 0.507116,-0.01103 -0.220485,-0.440973 -0.385849,-0.705554 -0.165365,-0.264583 -0.242536,-0.374827 l 4.674304,-1.741839 q 0.03307,0.154339 0.09922,0.595312 0.07717,0.429948 0.154339,1.135502 0.0882,0.705556 0.132292,1.43316 1.973349,0.418923 2.888369,1.080381 0.573262,-1.708766 1.455205,-2.833245 0.892969,-1.124479 1.367015,-1.543402 -0.154339,0.584287 -0.396875,1.907204 -0.23151,1.322916 -0.23151,2.789147 0,1.53238 0.330729,2.557637 0.771699,1.190625 1.289843,2.293057 0.440971,0.595312 0.848871,1.113454 0.418923,0.507116 0.595313,0.716579 l -3.704167,2.370225 q -0.286631,-0.56224 -0.82682,-1.79696 -0.529167,-1.245746 -0.903994,-2.689932 z"
         style="font-size:85.3333px;line-height:0.95;font-family:Karate;-inkscape-font-specification:Karate;text-align:center;letter-spacing:0px;word-spacing:0px;white-space:pre;fill:#ffffff;stroke-width:0.264583"
         id="path174480" />
      <path
         d="m 53.455361,61.823569 q 0.09922,-0.09922 0.12127,-0.132292 0.02204,-0.03307 0.03307,-0.04409 -0.01103,0 -0.0441,0.198435 1.785938,0.253561 3.472657,0.903994 1.697741,0.63941 2.921439,2.017448 1.23472,1.378037 1.23472,3.516751 0,2.315102 -1.422135,3.737237 -1.422133,1.422136 -3.340362,2.083594 -1.918229,0.650433 -3.340365,0.815798 -1.41111,0.165364 -2.050518,0.176389 0.308679,-0.0882 1.047308,-0.396875 0.73863,-0.308681 1.56545,-0.837848 l -3.704164,1.102432 q -0.110244,-0.56224 -0.286631,-1.830036 -0.165365,-1.278818 -0.165365,-2.667881 0,-1.433158 0.253558,-2.41432 0.341755,-1.35599 1.256771,-2.855294 0.926042,-1.499306 1.97335,-2.833245 -0.485069,-0.297656 -0.837848,-0.451998 -0.352777,-0.165365 -0.496094,-0.220486 0.73863,0 1.807985,0.132292 z m 0.540192,11.807026 q 1.322917,-0.959115 2.171788,-2.293054 0.84887,-1.333939 0.84887,-3.141927 0,-0.970137 -0.330729,-1.841058 -0.330729,-0.870918 -0.859896,-1.554425 -0.518141,-0.683508 -1.168574,-1.245745 -0.650434,-0.56224 -1.223698,-0.915019 -0.429948,2.326129 -0.429948,4.266406 0,1.1796 0.198437,2.160762 0.61736,3.064756 0.79375,4.56406 z"
         style="font-size:85.3333px;line-height:0.95;font-family:Karate;-inkscape-font-specification:Karate;text-align:center;letter-spacing:0px;word-spacing:0px;white-space:pre;fill:#ffffff;stroke-width:0.264583"
         id="path174482" />
      <path
         d="m 62.770899,67.534158 q -0.187413,-0.8158 -0.529167,-1.664671 -0.341752,-0.84887 -0.650433,-1.488281 -0.297656,-0.639408 -0.440973,-0.903991 l 5.082204,-1.830033 q 0.03307,0.363799 0.07717,1.245746 0.05512,0.870918 0.05512,1.951299 0,2.028473 -0.220485,3.307292 -0.363802,2.050518 -1.20165,3.571872 -0.826823,1.510329 -1.532377,2.259983 -0.705556,0.738627 -1.036285,0.981163 0.154339,-0.683506 0.374827,-2.171788 0.23151,-1.488281 0.23151,-3.064756 0,-1.355989 -0.209461,-2.193835 z"
         style="font-size:85.3333px;line-height:0.95;font-family:Karate;-inkscape-font-specification:Karate;text-align:center;letter-spacing:0px;word-spacing:0px;white-space:pre;fill:#ffffff;stroke-width:0.264583"
         id="path174484" />
      <path
         d="m 75.801622,68.074348 q -0.132291,-0.297657 -0.385849,-0.716579 -0.451996,-0.727605 -1.466231,-1.631596 -0.694532,1.223695 -0.992188,1.763887 -0.286631,0.540192 -0.661458,1.400085 1.311891,-0.154339 3.505726,-0.815797 z m -4.134112,3.252168 q -0.02204,0.474046 -0.02204,1.444183 0,0.760677 0.03307,1.389062 0.03307,0.628386 0.05512,0.892969 l -4.101039,-0.859896 q 0.03307,-0.308678 0.143314,-0.981162 0.110244,-0.672483 0.35278,-1.675693 -0.617363,-0.05512 -1.102431,-0.143317 -0.474044,-0.08819 -0.661459,-0.132292 l 0.992188,-3.296264 q 0.198437,0.08819 0.760677,0.286631 0.562239,0.187413 1.091406,0.319704 0.220485,-0.38585 0.584287,-0.870918 0.881944,-1.080384 3.230121,-2.756077 -0.4079,-0.319704 -0.650433,-0.496094 -0.242536,-0.187412 -0.374827,-0.286631 -0.132292,-0.09922 -0.198438,-0.143317 l 4.365622,-2.282029 q 0.253561,0.33073 0.760677,1.146527 0.518142,0.804776 1.091407,2.072569 0.584287,1.267793 0.716579,2.491491 0.02204,0.17639 0.02204,0.540192 0,0.992187 -0.286633,2.193835 -0.286631,1.190625 -0.639408,2.127689 -0.341755,0.926042 -0.639411,1.5875 -0.297656,0.661458 -0.418923,0.915017 v -0.59531 q 0,-1.278821 -0.132291,-2.678906 -0.132292,-1.411111 -0.540192,-2.667881 -2.094616,1.631595 -4.431768,2.458418 z"
         style="font-size:85.3333px;line-height:0.95;font-family:Karate;-inkscape-font-specification:Karate;text-align:center;letter-spacing:0px;word-spacing:0px;white-space:pre;fill:#ffffff;stroke-width:0.264583"
         id="path174486" />
      <path
         d="m 82.824103,68.416102 q 0.02204,2.789147 2.039496,4.398695 2.017448,1.598525 3.351387,2.105642 -0.595313,0 -1.951302,-0.15434 -1.344965,-0.165364 -3.141925,-0.782725 -1.796962,-0.628385 -3.141927,-2.006422 -1.333939,-1.37804 -1.333939,-3.649046 0,-2.965535 2.248956,-4.486889 2.259983,-1.532379 4.530989,-1.929254 2.271006,-0.396873 3.395485,-0.407898 -0.661458,0.187412 -2.006422,0.859896 -1.333942,0.672481 -2.667881,2.215883 -1.322917,1.543401 -1.322917,3.836458 z"
         style="font-size:85.3333px;line-height:0.95;font-family:Karate;-inkscape-font-specification:Karate;text-align:center;letter-spacing:0px;word-spacing:0px;white-space:pre;fill:#ffffff;stroke-width:0.264583"
         id="path174488" />
      <path
         id="rect16300"
         style="fill:#ffffff;stroke-width:0.218381"
         d="m 14.998442,2.0262398 2.210915,1.2942192 -6.649015,2.4755689 c 1.631971,-1.1992829 2.721505,-2.5632365 4.4381,-3.7697881 z" />
      <path
         id="rect16300-4"
         style="fill:#ffffff;stroke-width:0.218381"
         d="m 82.664181,31.024569 2.27227,1.183186 -6.51831,2.801677 c 1.5706,-1.2786 2.59128,-2.694816 4.24604,-3.984863 z" />
      <circle
         style="fill:#bc002d;fill-opacity:1;stroke:none;stroke-width:0.364353;stroke-miterlimit:4;stroke-dasharray:none"
         id="path16999"
         cx="61.110977"
         cy="56.918484"
         r="3.5" />
    </g>
  </g>
</svg>
