<?xml version="1.0" encoding="UTF-8" standalone="no"?>
<!-- Created with Inkscape (http://www.inkscape.org/) -->

<svg
   width="266mm"
   height="30mm"
   viewBox="0 0 266 30"
   version="1.1"
   id="svg5"
   sodipodi:docname="logoFRblanc.svg"
   inkscape:version="1.1.2 (0a00cf5339, 2022-02-04)"
   xmlns:inkscape="http://www.inkscape.org/namespaces/inkscape"
   xmlns:sodipodi="http://sodipodi.sourceforge.net/DTD/sodipodi-0.dtd"
   xmlns="http://www.w3.org/2000/svg"
   xmlns:svg="http://www.w3.org/2000/svg">
  <sodipodi:namedview
     id="namedview174638"
     pagecolor="#ffffff"
     bordercolor="#666666"
     borderopacity="1.0"
     inkscape:pageshadow="2"
     inkscape:pageopacity="0.0"
     inkscape:pagecheckerboard="0"
     inkscape:document-units="mm"
     showgrid="false"
     inkscape:zoom="0.88620949"
     inkscape:cx="491.983"
     inkscape:cy="76.731293"
     inkscape:window-width="1850"
     inkscape:window-height="1043"
     inkscape:window-x="70"
     inkscape:window-y="0"
     inkscape:window-maximized="1"
     inkscape:current-layer="svg5" />
  <defs
     id="defs2">
    <rect
       x="23.825047"
       y="34.002663"
       width="1040.8023"
       height="215.2803"
       id="rect3224" />
  </defs>
  <g
     aria-label="Ecole de karate Candiac"
     transform="matrix(0.26458333,0,0,0.26458333,-13.424788,-7.2868664)"
     id="text3222"
     style="font-size:85.3333px;line-height:1.25;text-align:center;letter-spacing:0px;word-spacing:0px;white-space:pre;shape-inside:url(#rect3224);fill:#ffffff">
    <path
       d="M 96.788273,86.260933 122.8716,80.802602 q -0.20834,1.499999 -0.70834,4.749998 -0.45833,3.208332 -0.91666,6.499997 -0.41667,3.291665 -0.41667,4.624998 0,-0.125 -4.125,-0.625 -4.125,-0.499999 -8.41666,-0.916666 -4.29167,-0.458333 -12.624997,-1.291666 -1.999999,8.791667 -6.124997,15.791657 8.833329,-3.95833 13.874994,-4.5 3.54167,-0.41666 8.875,-0.41666 4.45833,0 7.79166,0.20833 3.33333,0.16667 5.75,0.41667 2.41666,0.20833 3.29166,0.29166 l -10.66666,18.16666 q -0.5,-0.58333 -2.08333,-1.875 -1.54167,-1.29166 -4.70833,-2.87499 -3.16667,-1.58334 -7.375,-2.33334 -2.79167,-0.54166 -5.208332,-0.70833 -2.374999,-0.20833 -5.458331,-0.20833 -3.458332,0 -8.874996,0.5 -2.583332,2.91666 -4.833331,4.70833 -2.208333,1.75 -3.124999,2.29166 0.166667,-0.58333 0.5,-2.33333 0.375,-1.75 0.624999,-3.54166 -2.499998,0.41666 -3.833331,0.75 -1.333333,0.33333 -1.874999,0.5 -0.125,0 6.041664,-3.5 1.624999,-9.29167 1.624999,-18.333328 0,-1.5 -0.166667,-4.499998 -2.416665,-0.208334 -4.374998,-0.375 -1.916666,-0.208333 -2.874999,-0.291667 -0.916666,-0.08333 -1.291666,-0.125 l 8.374997,-1.708332 q -0.166667,-1.25 -0.666667,-3.916665 -0.708333,-3.374999 -3.666665,-10.833329 -1.374999,-0.208333 -2.249999,-0.333333 -0.833333,-0.125 -1.208333,-0.166667 -0.333333,-0.04167 -0.499999,-0.08333 0.416666,0 3.416665,-0.708333 -1.25,-2.916666 -2.374999,-5.166665 -1.125,-2.291666 -1.624999,-3.208332 l 22.541657,-9.208329 q 0.333333,1.291666 0.999999,4.458331 0.666667,3.166665 1.291666,7.499997 2.041666,-0.625 4.874994,-1.791666 5.54167,-2.166666 9.08333,-5.874997 3.58334,-3.708332 4.83334,-5.749998 l 14.12499,14.249994 q -2.875,1.583333 -9.29166,4.249998 -6.375,2.624999 -13.04166,3.624999 -3.125,0.416666 -6.416669,0.416666 -2.041665,0 -3.041665,-0.08333 0.25,3.041665 0.25,6.166664 0,1.958333 -0.08333,2.874999 z"
       style="font-family:Karate;-inkscape-font-specification:Karate"
       id="path174697" />
    <path
       d="m 144.41325,98.552594 q 0.0833,10.541666 7.70833,16.624996 7.625,6.04166 12.66667,7.95833 -2.25,0 -7.375,-0.58334 -5.08333,-0.625 -11.875,-2.95833 -6.79166,-2.375 -11.87499,-7.58333 -5.04167,-5.20833 -5.04167,-13.791659 0,-11.208329 8.5,-16.958326 8.54166,-5.791664 17.12499,-7.291664 8.58333,-1.499999 12.83333,-1.541666 -2.5,0.708333 -7.58333,3.249999 -5.04166,2.541665 -10.08333,8.374996 -5,5.833331 -5,14.499994 z"
       style="font-family:Karate;-inkscape-font-specification:Karate"
       id="path174699" />
    <path
       d="m 183.62157,74.385938 q -0.45833,-0.333333 -1.45833,-0.916667 -0.95833,-0.624999 -1.25,-0.749999 2.45833,0 6.20833,0.666666 5.20833,-1.291666 10.16666,-1.291666 -0.54166,0.166667 -1.875,0.75 -1.29166,0.541666 -3.16666,1.749999 4.79166,1.416666 8.66666,4.041665 3.91667,2.583332 6.54167,7.249997 2.62499,4.624998 2.62499,11.374995 0,11.208332 -6.83333,17.083322 -6.79166,5.875 -13.66666,7.45833 -6.83333,1.58334 -10.20833,1.66667 0.75,-0.29167 2.41667,-1.16667 1.70833,-0.91666 3.91666,-2.58333 -3.41666,-1.08333 -6.20833,-2.54166 -2.79166,-1.5 -5.66666,-4.29167 -2.83333,-2.79166 -4.625,-6.75 -1.75,-3.99999 -1.875,-9.458325 0,-9.208329 4.58333,-14.458327 4.625,-5.291665 11.70833,-7.83333 z m 4.375,3.499998 q -3.29167,3.208332 -5.45833,7.999997 -2.125,4.749998 -2.125,11.124995 0.0417,5.166662 1.16667,9.291662 1.16666,4.08333 2.79166,6.95833 1.625,2.875 3.375,4.75 3.83333,-3.54167 6.33333,-8.66666 2.54167,-5.16667 2.54167,-12.083332 -0.0833,-10.958329 -8.625,-19.374992 z"
       style="font-family:Karate;-inkscape-font-specification:Karate"
       id="path174701" />
    <path
       d="m 223.41322,112.13592 q 3.04166,-1.33333 5.29166,-2.125 2.95833,-1.125 8.54166,-1.125 3.04167,0 5.70834,0.25 2.66666,0.25 3.83333,0.41667 l -3.33334,13.99999 q -2.12499,-1.25 -6.08333,-3.12499 -3.95833,-1.91667 -6.45833,-2 -0.83333,-0.0833 -2.91666,-0.0833 -3.04167,0 -9.20833,0.33334 -1.79167,2.16666 -3.25,3.45833 -1.41667,1.25 -2.04167,1.66666 0.16667,0 1.29167,-4.83333 -1.16667,0.0833 -1.75,0.125 -0.58333,0.0417 -1.29167,0.125 -0.70833,0.0417 -0.87499,0.0833 -0.125,0 -0.25,0 0.41666,-0.33334 1.66666,-1.16667 1.25,-0.83333 3.08333,-1.91667 0.75,-3.58333 1.33334,-8.04166 0.625,-4.45833 0.625,-8.249996 0,-2.916666 -0.33334,-4.958331 -0.45833,-2.833333 -2,-6.249998 -1.5,-3.416665 -2.875,-5.749997 -1.37499,-2.374999 -2.04166,-3.374999 l 17.66666,-6.458331 q 0.41666,2.083333 1,6.791664 0.625,4.666665 0.625,9.916663 0,4.666664 -0.5,7.416663 -1.41667,8.249992 -5.45833,14.874992 z"
       style="font-family:Karate;-inkscape-font-specification:Karate"
       id="path174703" />
    <path
       d="m 266.32987,95.469262 19.62499,-4.083331 q -0.375,2.583332 -0.95834,6.791664 -0.58333,4.208335 -0.58333,5.166665 0,-0.16667 -4.70833,-0.66667 -4.70833,-0.54166 -14.12499,-1.45833 -1.58334,6.70833 -4.625,11.83333 6.83333,-2.95833 10.41666,-3.41667 2.04167,-0.25 6.375,-0.25 4.625,0 7.95833,0.29167 3.375,0.25 4.95833,0.41667 l -8.04166,13.62499 q -0.375,-0.45833 -1.5,-1.375 -1.125,-0.95833 -3.54167,-2.16666 -2.41666,-1.25 -5.54166,-1.83334 -3.5,-0.66666 -8,-0.66666 -3.33333,0 -6.75,0.41666 -1.91666,2.20834 -3.58333,3.54167 -1.625,1.29166 -2.29166,1.66666 0,0 0.83333,-4.41666 -2.08333,0.33333 -2.95833,0.58333 -0.875,0.20834 -1.29167,0.33334 -0.375,0 4.5,-2.54167 1.20833,-7.5 1.20833,-13.74999 0,-1.125 -0.0417,-1.83334 0,-0.70833 -0.0417,-1.58333 -2.375,-0.208333 -3.70833,-0.333333 -1.29167,-0.125 -1.875,-0.166666 -0.54167,-0.04167 -0.83334,-0.08333 l 6.25,-1.291666 q -0.125,-1.666666 -0.54167,-2.999999 -0.79166,-3.791665 -2.70833,-7.999996 -1.25,-0.208334 -2,-0.333333 -0.70833,-0.166667 -1,-0.208334 0.125,0 2.58334,-0.499999 -1.04167,-2.499999 -1.83334,-4.041665 -0.79166,-1.583333 -1.16666,-2.25 l 16.91666,-6.916663 q 0.25,0.958333 0.70833,3.333332 0.45833,2.374999 0.95833,5.708331 1.16667,-0.416667 1.91667,-0.666667 0.75,-0.291666 1.79166,-0.708333 4.20834,-1.666666 6.83334,-4.416665 2.62499,-2.791665 3.54166,-4.291665 l 10.66666,10.666663 q -0.95833,0.499999 -3.25,1.583332 -2.25,1.083333 -6.16666,2.458333 -3.875,1.333332 -7.375,1.833332 -1.91666,0.291667 -4.79166,0.291667 -1.54167,0 -2.29167,-0.08333 0.16667,2.999999 0.16667,4.666665 0,1.458333 -0.0833,2.124999 z"
       style="font-family:Karate;-inkscape-font-specification:Karate"
       id="path174705" />
    <path
       d="m 326.57985,73.635938 q 0.375,-0.375 0.45833,-0.5 0.0833,-0.125 0.125,-0.166666 -0.0417,0 -0.16667,0.749999 6.75,0.958333 13.125,3.416666 6.41666,2.416665 11.04166,7.624996 4.66666,5.208332 4.66666,13.291662 0,8.749995 -5.37499,14.124995 -5.375,5.375 -12.625,7.875 -7.24999,2.45833 -12.62499,3.08333 -5.33333,0.625 -7.75,0.66666 1.16667,-0.33333 3.95833,-1.5 2.79167,-1.16666 5.91667,-3.16666 l -14,4.16666 q -0.41666,-2.125 -1.08333,-6.91666 -0.625,-4.83333 -0.625,-10.08333 0,-5.41666 0.95833,-9.124995 1.29167,-5.124998 4.75,-10.791662 3.5,-5.666665 7.45833,-10.708329 -1.83333,-1.125 -3.16666,-1.708333 -1.33334,-0.624999 -1.875,-0.833333 2.79166,0 6.83333,0.5 z m 2.04166,44.624982 q 5,-3.625 8.20833,-8.66666 3.20833,-5.04167 3.20833,-11.874999 0,-3.666665 -1.24999,-6.95833 -1.25,-3.291665 -3.25,-5.874998 -1.95834,-2.583332 -4.41667,-4.708331 -2.45833,-2.124999 -4.625,-3.458332 -1.625,8.791663 -1.625,16.124993 0,4.458332 0.75,8.166667 2.33334,11.58333 3,17.24999 z"
       style="font-family:Karate;-inkscape-font-specification:Karate"
       id="path174707" />
    <path
       d="m 375.20482,95.469262 19.62499,-4.083331 q -0.375,2.583332 -0.95833,6.791664 -0.58333,4.208335 -0.58333,5.166665 0,-0.16667 -4.70834,-0.66667 -4.70833,-0.54166 -14.12499,-1.45833 -1.58333,6.70833 -4.625,11.83333 6.83333,-2.95833 10.41666,-3.41667 2.04167,-0.25 6.375,-0.25 4.625,0 7.95833,0.29167 3.375,0.25 4.95833,0.41667 l -8.04166,13.62499 q -0.375,-0.45833 -1.5,-1.375 -1.125,-0.95833 -3.54166,-2.16666 -2.41667,-1.25 -5.54167,-1.83334 -3.5,-0.66666 -8,-0.66666 -3.33333,0 -6.74999,0.41666 -1.91667,2.20834 -3.58333,3.54167 -1.625,1.29166 -2.29167,1.66666 0,0 0.83333,-4.41666 -2.08333,0.33333 -2.95833,0.58333 -0.875,0.20834 -1.29167,0.33334 -0.375,0 4.5,-2.54167 1.20834,-7.5 1.20834,-13.74999 0,-1.125 -0.0417,-1.83334 0,-0.70833 -0.0417,-1.58333 -2.375,-0.208333 -3.70833,-0.333333 -1.29167,-0.125 -1.875,-0.166666 -0.54167,-0.04167 -0.83333,-0.08333 l 6.25,-1.291666 q -0.125,-1.666666 -0.54167,-2.999999 -0.79167,-3.791665 -2.70833,-7.999996 -1.25,-0.208334 -2,-0.333333 -0.70834,-0.166667 -1,-0.208334 0.125,0 2.58333,-0.499999 -1.04167,-2.499999 -1.83333,-4.041665 -0.79167,-1.583333 -1.16667,-2.25 l 16.91666,-6.916663 q 0.25,0.958333 0.70833,3.333332 0.45834,2.374999 0.95834,5.708331 1.16666,-0.416667 1.91666,-0.666667 0.75,-0.291666 1.79167,-0.708333 4.20833,-1.666666 6.83333,-4.416665 2.625,-2.791665 3.54166,-4.291665 l 10.66667,10.666663 q -0.95834,0.499999 -3.25,1.583332 -2.25,1.083333 -6.16667,2.458333 -3.87499,1.333332 -7.37499,1.833332 -1.91667,0.291667 -4.79167,0.291667 -1.54166,0 -2.29166,-0.08333 0.16666,2.999999 0.16666,4.666665 0,1.458333 -0.0833,2.124999 z"
       style="font-family:Karate;-inkscape-font-specification:Karate"
       id="path174709" />
    <path
       d="m 445.9548,96.927595 q 8.70833,3.541665 11.66666,5.999995 2.75,2.16667 5.66666,5.875 2.95834,3.66667 4.83333,6.66666 1.91667,2.95834 2.66667,4.25 l -15.29166,4 q -0.45833,-1.04167 -1.45833,-3.125 -1,-2.08333 -3.08334,-5.91666 -2.08333,-3.83333 -3.83333,-6.375 -3.04166,-4.45833 -7.24999,-8.20833 -0.41667,0.16667 -1.08334,0.5 -1.54166,4.70833 -4.70833,9.75 -3.125,5.04166 -5.70833,8.33333 -2.54166,3.24999 -3.75,4.62499 0.5,-2.20833 1.29167,-7.16666 0.79166,-5 1,-10.5 -2.75,1.04167 -4.29167,1.625 -1.5,0.58334 -2.20833,0.83334 0.70833,-0.41667 2.33333,-1.5 1.66667,-1.125 4.16667,-3.08333 0,-5.125002 -0.79167,-8.291668 -0.70833,-3.083332 -2,-6.291664 -1.29166,-3.208332 -2.45833,-5.624997 -1.125,-2.416666 -1.66667,-3.416666 l 18.41666,-6.916663 q 0.41667,2.124999 1.04167,6.791664 0.66667,4.624998 0.66667,10.166662 v 1.708333 q 0.375,-0.333334 1.04166,-1.166667 2.79167,-3.499998 4.5,-8.20833 1.75,-4.749998 2.33333,-7.166663 l 14.5,3.999998 q -1.5,2.541666 -4.91667,7.33333 -3.375,4.749998 -7.45833,7.95833 -2.20833,1.583333 -4.16666,2.541666 z"
       style="font-family:Karate;-inkscape-font-specification:Karate"
       id="path174711" />
    <path
       d="m 505.57975,97.260928 q -0.5,-1.124999 -1.45833,-2.708332 -1.70833,-2.749999 -5.54166,-6.166664 -2.625,4.624998 -3.75,6.666664 -1.08334,2.041666 -2.5,5.291664 4.95833,-0.583333 13.24999,-3.083332 z m -15.62499,12.291662 q -0.0833,1.79167 -0.0833,5.45833 0,2.875 0.125,5.25 0.125,2.375 0.20833,3.375 l -15.49999,-3.25 q 0.125,-1.16667 0.54166,-3.70833 0.41667,-2.54167 1.33333,-6.33333 -2.33333,-0.20834 -4.16666,-0.54167 -1.79167,-0.33333 -2.5,-0.5 l 3.75,-12.458328 q 0.75,0.333333 2.875,1.083333 2.125,0.708333 4.125,1.208332 0.83333,-1.458332 2.20833,-3.291665 3.33333,-4.083331 12.20833,-10.416662 -1.54167,-1.208333 -2.45834,-1.874999 -0.91666,-0.708333 -1.41666,-1.083333 -0.5,-0.375 -0.75,-0.541667 l 16.49999,-8.624996 q 0.95833,1.249999 2.875,4.333331 1.95833,3.041666 4.125,7.83333 2.20833,4.791665 2.70833,9.416663 0.0833,0.666667 0.0833,2.041666 0,3.749995 -1.08333,8.291665 -1.08333,4.5 -2.41666,8.04166 -1.29167,3.5 -2.41667,6 -1.125,2.5 -1.58333,3.45833 v -2.25 q 0,-4.83333 -0.5,-10.12499 -0.5,-5.33334 -2.04167,-10.08333 -7.91666,6.16666 -16.74999,9.29166 z"
       style="font-family:Karate;-inkscape-font-specification:Karate"
       id="path174713" />
    <path
       d="m 535.53807,74.844271 q 6.08333,0.583333 11.29166,2.333332 5.20834,1.75 8.66667,5.416665 3.5,3.624998 3.5,9.208329 0,6.958331 -12.20833,12.541663 7.83333,2.125 11.08333,4.70833 3.99999,3.125 6.41666,6.33333 2.45833,3.16667 3.25,4.66667 l -15.29166,3.99999 q -0.16667,-0.91666 -1.25,-3.41666 -1.08333,-2.54167 -3.625,-6.20833 -2.83333,-4.20833 -6.91666,-7.5 -5.375,1.75 -9.125,2.625 -2,3.375 -4.20833,6.375 -2.16667,3 -3.66667,4.83333 -1.45833,1.83333 -2.08333,2.54166 0.29167,-1.33333 0.875,-4.70833 0.58333,-3.375 0.91667,-7.33333 -1.91667,0.375 -2.29167,0.45834 -0.33333,0.0417 -0.625,0.0833 0.125,0 3,-1.20833 0.33333,-4.58334 0.33333,-7.25 0,-4.874999 -0.70833,-8.124998 -0.83333,-4.041665 -2.70833,-8.541663 -1.875,-4.499998 -3,-6.791664 l 10.16666,-3.958331 q -2,-0.791667 -2.79166,-1.041666 -0.79167,-0.25 -1.20834,-0.375 0.375,-0.04167 1.41667,-0.08333 1.08333,-0.04167 2.58333,-0.04167 0.54167,0 1.66667,0.04167 1.16666,0.04167 2.16666,0.08333 l 4,-1.541666 q 0.0417,0 0.375,1.874999 z m 0.25,28.749989 q -0.45833,-0.33333 -1.125,-0.66667 -0.25,0.66667 -0.41666,1.04167 -0.16667,0.33333 -0.5,1.08333 0.5,-0.375 1,-0.70833 0.54166,-0.375 1.04166,-0.75 z m 1.70833,-1.45833 q 6,-5.291668 6.125,-10.333333 0,-5.749997 -7.24999,-10.999995 0.5,5.499997 0.5,9.124996 0,5.416664 -0.91667,9.124996 -0.45833,1.583336 -0.875,2.666666 1.375,0.33333 2.41666,0.41667 z"
       style="font-family:Karate;-inkscape-font-specification:Karate"
       id="path174715" />
    <path
       d="m 602.87138,97.260928 q -0.5,-1.124999 -1.45833,-2.708332 -1.70834,-2.749999 -5.54167,-6.166664 -2.625,4.624998 -3.75,6.666664 -1.08333,2.041666 -2.5,5.291664 4.95834,-0.583333 13.25,-3.083332 z m -15.625,12.291662 q -0.0833,1.79167 -0.0833,5.45833 0,2.875 0.125,5.25 0.125,2.375 0.20833,3.375 l -15.49999,-3.25 q 0.125,-1.16667 0.54167,-3.70833 0.41666,-2.54167 1.33333,-6.33333 -2.33333,-0.20834 -4.16666,-0.54167 -1.79167,-0.33333 -2.5,-0.5 l 3.74999,-12.458328 q 0.75,0.333333 2.875,1.083333 2.125,0.708333 4.125,1.208332 0.83333,-1.458332 2.20833,-3.291665 3.33334,-4.083331 12.20833,-10.416662 -1.54166,-1.208333 -2.45833,-1.874999 -0.91667,-0.708333 -1.41667,-1.083333 -0.5,-0.375 -0.75,-0.541667 l 16.5,-8.624996 q 0.95833,1.249999 2.875,4.333331 1.95833,3.041666 4.12499,7.83333 2.20834,4.791665 2.70834,9.416663 0.0833,0.666667 0.0833,2.041666 0,3.749995 -1.08333,8.291665 -1.08334,4.5 -2.41667,8.04166 -1.29166,3.5 -2.41666,6 -1.125,2.5 -1.58334,3.45833 v -2.25 q 0,-4.83333 -0.5,-10.12499 -0.5,-5.33334 -2.04166,-10.08333 -7.91667,6.16666 -16.75,9.29166 z"
       style="font-family:Karate;-inkscape-font-specification:Karate"
       id="path174717" />
    <path
       d="m 632.53803,88.927598 q -0.75,0.08333 -2.29166,0.08333 -4.79167,0 -9.58333,-0.916667 -4.79167,-0.958333 -7.04167,-1.583332 l 7.66667,-12.541662 q 1.58333,0.791667 4.95833,2.166666 3.375,1.374999 7.58333,2.291666 0.20833,-1.625 0.25,-2.499999 0.0417,-0.916667 0.125,-2.458333 0.125,-1.583332 0.125,-1.833332 0,-0.291667 0,-0.458333 0.375,0.791666 1.41666,2.958332 1.04167,2.124999 2.25,4.791665 7.75,0 14.04166,-1.125 6.33333,-1.125 9,-1.874999 -2.70833,1.833332 -8.54166,5.249998 -5.79167,3.374998 -11.91667,5.708331 2.16667,6.999997 2.29167,11.749995 0,4.583336 -1.875,10.208336 -1.83333,5.62499 -3.625,9.29166 -1.75,3.625 -2.66666,5.16666 l -14.54166,-7.24999 q 1.66666,-1.625 4.70833,-5.83333 3.04166,-4.25 5.20833,-10.875003 1.20833,-3.624999 2.45833,-10.416663 z"
       style="font-family:Karate;-inkscape-font-specification:Karate"
       id="path174719" />
    <path
       d="m 677.0797,95.469262 19.62499,-4.083331 q -0.375,2.583332 -0.95833,6.791664 -0.58334,4.208335 -0.58334,5.166665 0,-0.16667 -4.70833,-0.66667 -4.70833,-0.54166 -14.12499,-1.45833 -1.58333,6.70833 -4.625,11.83333 6.83333,-2.95833 10.41666,-3.41667 2.04167,-0.25 6.375,-0.25 4.625,0 7.95833,0.29167 3.375,0.25 4.95833,0.41667 l -8.04166,13.62499 q -0.375,-0.45833 -1.5,-1.375 -1.125,-0.95833 -3.54167,-2.16666 -2.41666,-1.25 -5.54166,-1.83334 -3.5,-0.66666 -8,-0.66666 -3.33333,0 -6.74999,0.41666 -1.91667,2.20834 -3.58334,3.54167 -1.625,1.29166 -2.29166,1.66666 0,0 0.83333,-4.41666 -2.08333,0.33333 -2.95833,0.58333 -0.875,0.20834 -1.29167,0.33334 -0.375,0 4.5,-2.54167 1.20833,-7.5 1.20833,-13.74999 0,-1.125 -0.0417,-1.83334 0,-0.70833 -0.0417,-1.58333 -2.375,-0.208333 -3.70833,-0.333333 -1.29167,-0.125 -1.875,-0.166666 -0.54167,-0.04167 -0.83333,-0.08333 l 6.24999,-1.291666 q -0.125,-1.666666 -0.54166,-2.999999 -0.79167,-3.791665 -2.70834,-7.999996 -1.24999,-0.208334 -1.99999,-0.333333 -0.70834,-0.166667 -1,-0.208334 0.125,0 2.58333,-0.499999 -1.04167,-2.499999 -1.83333,-4.041665 -0.79167,-1.583333 -1.16667,-2.25 l 16.91666,-6.916663 q 0.25,0.958333 0.70833,3.333332 0.45834,2.374999 0.95833,5.708331 1.16667,-0.416667 1.91667,-0.666667 0.75,-0.291666 1.79167,-0.708333 4.20833,-1.666666 6.83333,-4.416665 2.625,-2.791665 3.54166,-4.291665 l 10.66666,10.666663 q -0.95833,0.499999 -3.24999,1.583332 -2.25,1.083333 -6.16667,2.458333 -3.875,1.333332 -7.375,1.833332 -1.91666,0.291667 -4.79166,0.291667 -1.54167,0 -2.29167,-0.08333 0.16667,2.999999 0.16667,4.666665 0,1.458333 -0.0833,2.124999 z"
       style="font-family:Karate;-inkscape-font-specification:Karate"
       id="path174721" />
    <path
       d="m 742.37134,90.344264 q 0.125,7.791664 3.91667,13.958326 3.83333,6.125 8.875,10.16666 5.04166,4 8.83332,6 3.83334,2 5.5,2.66667 -3,0 -9.70833,-0.75 -6.70833,-0.79167 -15.79166,-3.91667 -9.04166,-3.125 -15.83332,-10.16666 -6.79167,-7.04166 -6.79167,-18.458325 0,-14.958327 11.33333,-22.624991 11.375,-7.666663 22.79166,-9.624996 11.45833,-1.999999 17.08332,-2.041666 -1.87499,0.541667 -6.16666,2.374999 -4.25,1.833333 -9.91666,5.916664 -5.66667,4.041665 -9.91666,10.749996 -4.20834,6.666664 -4.20834,15.749993 z"
       style="font-family:Karate;-inkscape-font-specification:Karate"
       id="path174723" />
    <path
       d="m 807.99632,97.260928 q -0.5,-1.124999 -1.45834,-2.708332 -1.70833,-2.749999 -5.54166,-6.166664 -2.625,4.624998 -3.75,6.666664 -1.08333,2.041666 -2.5,5.291664 4.95833,-0.583333 13.25,-3.083332 z m -15.625,12.291662 q -0.0833,1.79167 -0.0833,5.45833 0,2.875 0.125,5.25 0.125,2.375 0.20833,3.375 l -15.49999,-3.25 q 0.125,-1.16667 0.54167,-3.70833 0.41666,-2.54167 1.33333,-6.33333 -2.33333,-0.20834 -4.16667,-0.54167 -1.79166,-0.33333 -2.49999,-0.5 l 3.74999,-12.458328 q 0.75,0.333333 2.875,1.083333 2.125,0.708333 4.125,1.208332 0.83333,-1.458332 2.20833,-3.291665 3.33334,-4.083331 12.20833,-10.416662 -1.54166,-1.208333 -2.45833,-1.874999 -0.91667,-0.708333 -1.41667,-1.083333 -0.5,-0.375 -0.75,-0.541667 l 16.5,-8.624996 q 0.95833,1.249999 2.875,4.333331 1.95833,3.041666 4.12499,7.83333 2.20834,4.791665 2.70834,9.416663 0.0833,0.666667 0.0833,2.041666 0,3.749995 -1.08333,8.291665 -1.08334,4.5 -2.41667,8.04166 -1.29167,3.5 -2.41666,6 -1.125,2.5 -1.58334,3.45833 v -2.25 q 0,-4.83333 -0.5,-10.12499 -0.5,-5.33334 -2.04166,-10.08333 -7.91667,6.16666 -16.75,9.29166 z"
       style="font-family:Karate;-inkscape-font-specification:Karate"
       id="path174725" />
    <path
       d="m 848.70463,106.92759 q -2.79166,-5.45833 -5.83333,-8.624996 -2.29166,-2.374999 -4.41666,-3.999998 -0.16667,1.583333 -0.33334,2.374999 -1.04166,5.999995 -3.41666,10.999995 -2.375,4.95833 -4.91667,8.20833 -2.54166,3.20833 -4.41666,4.95833 -1.83333,1.70833 -2.625,2.29167 0.41667,-1.45834 1.25,-4.91667 0.875,-3.5 1.70833,-8.74999 0.875,-5.25 0.875,-10.124999 0,-2.916666 -0.33333,-4.958332 -0.66667,-4.166665 -3.58333,-9.666662 -1.20834,-0.541667 -2.25,-0.958333 -1,-0.458333 -1.33333,-0.583333 0.24999,-0.04167 0.70833,-0.04167 0.45833,-0.04167 1.91666,-0.04167 -0.83333,-1.666666 -1.45833,-2.666665 -0.625,-1 -0.91667,-1.416666 l 17.66666,-6.583331 q 0.125,0.583333 0.375,2.249999 0.29167,1.625 0.58334,4.291665 0.33333,2.666666 0.5,5.416665 7.45833,1.583332 10.91666,4.083331 2.16666,-6.45833 5.5,-10.708329 3.375,-4.249998 5.16666,-5.833331 -0.58333,2.208333 -1.5,7.208331 -0.875,4.999998 -0.875,10.541662 0,5.791664 1.25,9.666663 2.91667,4.499995 4.875,8.666655 1.66667,2.25 3.20833,4.20834 1.58333,1.91666 2.25,2.70833 l -13.99999,8.95833 q -1.08334,-2.125 -3.125,-6.79167 -2,-4.70833 -3.41667,-10.16666 z"
       style="font-family:Karate;-inkscape-font-specification:Karate"
       id="path174727" />
    <path
       d="m 884.28793,73.635938 q 0.375,-0.375 0.45833,-0.5 0.0833,-0.125 0.125,-0.166666 -0.0417,0 -0.16666,0.749999 6.74999,0.958333 13.12499,3.416666 6.41667,2.416665 11.04166,7.624996 4.66667,5.208332 4.66667,13.291662 0,8.749995 -5.375,14.124995 -5.375,5.375 -12.62499,7.875 -7.25,2.45833 -12.625,3.08333 -5.33333,0.625 -7.74999,0.66666 1.16666,-0.33333 3.95833,-1.5 2.79166,-1.16666 5.91666,-3.16666 l -13.99999,4.16666 q -0.41667,-2.125 -1.08334,-6.91666 -0.625,-4.83333 -0.625,-10.08333 0,-5.41666 0.95834,-9.124995 1.29166,-5.124998 4.75,-10.791662 3.49999,-5.666665 7.45833,-10.708329 -1.83334,-1.125 -3.16667,-1.708333 -1.33333,-0.624999 -1.875,-0.833333 2.79167,0 6.83333,0.5 z m 2.04167,44.624982 q 4.99999,-3.625 8.20833,-8.66666 3.20833,-5.04167 3.20833,-11.874999 0,-3.666665 -1.25,-6.95833 -1.25,-3.291665 -3.25,-5.874998 -1.95833,-2.583332 -4.41666,-4.708331 -2.45834,-2.124999 -4.625,-3.458332 -1.625,8.791663 -1.625,16.124993 0,4.458332 0.75,8.166667 2.33333,11.58333 3,17.24999 z"
       style="font-family:Karate;-inkscape-font-specification:Karate"
       id="path174729" />
    <path
       d="m 919.49629,95.219262 q -0.70833,-3.083332 -2,-6.291664 -1.29167,-3.208332 -2.45833,-5.624997 -1.125,-2.416666 -1.66667,-3.416666 l 19.20833,-6.916663 q 0.125,1.374999 0.29166,4.708331 0.20834,3.291665 0.20834,7.374997 0,7.666663 -0.83334,12.499995 -1.375,7.749995 -4.54166,13.499995 -3.125,5.70833 -5.79167,8.54166 -2.66666,2.79167 -3.91666,3.70833 0.58333,-2.58333 1.41667,-8.20833 0.875,-5.62499 0.875,-11.58332 0,-5.125002 -0.79167,-8.291668 z"
       style="font-family:Karate;-inkscape-font-specification:Karate"
       id="path174731" />
    <path
       d="m 968.74626,97.260928 q -0.5,-1.124999 -1.45834,-2.708332 -1.70833,-2.749999 -5.54166,-6.166664 -2.625,4.624998 -3.75,6.666664 -1.08333,2.041666 -2.5,5.291664 4.95833,-0.583333 13.25,-3.083332 z m -15.625,12.291662 q -0.0833,1.79167 -0.0833,5.45833 0,2.875 0.125,5.25 0.125,2.375 0.20833,3.375 l -15.49999,-3.25 q 0.125,-1.16667 0.54167,-3.70833 0.41666,-2.54167 1.33333,-6.33333 -2.33333,-0.20834 -4.16667,-0.54167 -1.79166,-0.33333 -2.5,-0.5 l 3.75,-12.458328 q 0.75,0.333333 2.875,1.083333 2.125,0.708333 4.125,1.208332 0.83333,-1.458332 2.20833,-3.291665 3.33333,-4.083331 12.20833,-10.416662 -1.54167,-1.208333 -2.45833,-1.874999 -0.91667,-0.708333 -1.41667,-1.083333 -0.5,-0.375 -0.75,-0.541667 l 16.5,-8.624996 q 0.95833,1.249999 2.87499,4.333331 1.95834,3.041666 4.125,7.83333 2.20834,4.791665 2.70833,9.416663 0.0833,0.666667 0.0833,2.041666 0,3.749995 -1.08333,8.291665 -1.08334,4.5 -2.41667,8.04166 -1.29167,3.5 -2.41667,6 -1.125,2.5 -1.58333,3.45833 v -2.25 q 0,-4.83333 -0.5,-10.12499 -0.5,-5.33334 -2.04166,-10.08333 -7.91667,6.16666 -16.75,9.29166 z"
       style="font-family:Karate;-inkscape-font-specification:Karate"
       id="path174733" />
    <path
       d="m 995.28791,98.552594 q 0.0833,10.541666 7.70829,16.624996 7.625,6.04166 12.6667,7.95833 -2.25,0 -7.375,-0.58334 -5.0833,-0.625 -11.87499,-2.95833 -6.79166,-2.375 -11.87499,-7.58333 -5.04167,-5.20833 -5.04167,-13.791659 0,-11.208329 8.5,-16.958326 8.54166,-5.791664 17.12495,-7.291664 8.5834,-1.499999 12.8334,-1.541666 -2.5,0.708333 -7.5834,3.249999 -5.0416,2.541665 -10.0833,8.374996 -4.99999,5.833331 -4.99999,14.499994 z"
       style="font-family:Karate;-inkscape-font-specification:Karate"
       id="path174735" />
  </g>
  <path
     id="rect16300"
     style="fill:#ffffff;stroke-width:0.218381"
     d="m 14.998442,2.0262398 2.210915,1.2942192 -6.649015,2.4755689 c 1.631971,-1.1992829 2.721505,-2.5632365 4.4381,-3.7697881 z" />
  <path
     id="rect16300-4"
     style="fill:#ffffff;stroke-width:0.218381"
     d="m 167.63118,6.8159828 2.27227,1.1831861 -6.51831,2.8016771 c 1.5706,-1.2786001 2.59128,-2.694816 4.24604,-3.9848632 z" />
  <path
     id="path16999"
     style="fill:#bc002d;stroke-width:0.364353"
     d="m 231.20001,6.3556538 a 3.5,3.5 0 0 1 -3.5,3.5 3.5,3.5 0 0 1 -3.5,-3.5 3.5,3.5 0 0 1 3.5,-3.5 3.5,3.5 0 0 1 3.5,3.5 z" />
</svg>
