<?xml version="1.0" encoding="UTF-8" standalone="no"?>
<!-- Created with Inkscape (http://www.inkscape.org/) -->

<svg
   width="170mm"
   height="25mm"
   viewBox="0 0 170 25"
   version="1.1"
   id="svg5"
   inkscape:version="1.1.2 (0a00cf5339, 2022-02-04)"
   sodipodi:docname="logoFRMobileBlanc.svg"
   inkscape:export-filename="/home/glaroc/Documents/karate-candiac-hugo/karateSite/static/images/logo.png"
   inkscape:export-xdpi="150"
   inkscape:export-ydpi="150"
   xmlns:inkscape="http://www.inkscape.org/namespaces/inkscape"
   xmlns:sodipodi="http://sodipodi.sourceforge.net/DTD/sodipodi-0.dtd"
   xmlns="http://www.w3.org/2000/svg"
   xmlns:svg="http://www.w3.org/2000/svg">
  <sodipodi:namedview
     id="namedview7"
     pagecolor="#ffffff"
     bordercolor="#666666"
     borderopacity="1.0"
     inkscape:pageshadow="2"
     inkscape:pageopacity="0.0"
     inkscape:pagecheckerboard="true"
     inkscape:document-units="mm"
     showgrid="false"
     inkscape:zoom="1.0633188"
     inkscape:cx="286.83779"
     inkscape:cy="83.22998"
     inkscape:window-width="1850"
     inkscape:window-height="1016"
     inkscape:window-x="1990"
     inkscape:window-y="27"
     inkscape:window-maximized="1"
     inkscape:current-layer="layer1" />
  <defs
     id="defs2">
    <rect
       x="-91.81459"
       y="45.668507"
       width="97.468086"
       height="111.20242"
       id="rect94590" />
    <rect
       x="15.145957"
       y="145.70216"
       width="278.4024"
       height="54.409416"
       id="rect81644" />
    <rect
       x="23.825047"
       y="34.002663"
       width="627.3678"
       height="282.56317"
       id="rect3224" />
  </defs>
  <g
     inkscape:label="Layer 1"
     inkscape:groupmode="layer"
     id="layer1">
    <g
       aria-label="arate Candiac"
       transform="matrix(0.26200548,0,0,0.25493063,6.4515998,-5.9116563)"
       id="text3222"
       style="font-size:85.3333px;line-height:0.95;text-align:center;letter-spacing:0px;word-spacing:0px;text-anchor:middle;white-space:pre;shape-inside:url(#rect3224);fill:#ffffff">
      <path
         d="m 99.113055,84.460933 q -0.5,-1.124999 -1.458333,-2.708332 -1.708332,-2.749999 -5.541664,-6.166664 -2.624999,4.624998 -3.749998,6.666664 -1.083333,2.041665 -2.499999,5.291664 4.958331,-0.583333 13.249994,-3.083332 z M 83.488062,96.752595 q -0.08333,1.791666 -0.08333,5.458335 0,2.87499 0.125,5.24999 0.125,2.375 0.208334,3.375 l -15.499994,-3.25 q 0.125,-1.16666 0.541667,-3.70833 0.416666,-2.54166 1.333332,-6.333329 -2.333332,-0.208333 -4.166665,-0.541667 -1.791666,-0.333333 -2.499999,-0.499999 l 3.749999,-12.458328 q 0.75,0.333333 2.874999,1.083332 2.124999,0.708333 4.124998,1.208333 0.833333,-1.458332 2.208332,-3.291665 3.333332,-4.083332 12.208329,-10.416662 -1.541666,-1.208333 -2.458333,-1.875 -0.916666,-0.708333 -1.416666,-1.083332 -0.5,-0.375 -0.749999,-0.541667 L 100.48805,60.50261 q 0.95834,1.249999 2.875,4.333331 1.95834,3.041666 4.125,7.83333 2.20833,4.791665 2.70833,9.416663 0.0833,0.666666 0.0833,2.041666 0,3.749998 -1.08334,8.291663 -1.08333,4.499998 -2.41666,8.041667 -1.29167,3.49999 -2.41667,5.99999 -1.125,2.5 -1.58333,3.45834 v -2.25 q 0,-4.83333 -0.5,-10.124999 -0.5,-5.333331 -2.04167,-10.083329 -7.916659,6.166664 -16.749988,9.291663 z"
         style="font-family:Karate;-inkscape-font-specification:Karate"
         id="path174316" />
      <path
         d="m 129.07138,62.044276 q 6.08333,0.583333 11.29166,2.333332 5.20833,1.749999 8.66666,5.416665 3.5,3.624998 3.5,9.208329 0,6.95833 -12.20833,12.541661 7.83333,2.125 11.08333,4.708332 4,3.124998 6.41666,6.333335 2.45834,3.16666 3.25,4.66666 l -15.29166,4 q -0.16667,-0.91667 -1.25,-3.41667 -1.08333,-2.54166 -3.625,-6.20833 -2.83333,-4.208329 -6.91666,-7.499994 -5.375,1.749999 -9.125,2.624999 -2,3.374995 -4.20833,6.374995 -2.16666,3 -3.66666,4.83333 -1.45834,1.83334 -2.08334,2.54167 0.29167,-1.33333 0.875,-4.70833 0.58334,-3.375 0.91667,-7.333333 -1.91667,0.375 -2.29167,0.458333 -0.33333,0.04167 -0.625,0.08333 0.125,0 3,-1.208333 0.33334,-4.583332 0.33334,-7.249997 0,-4.874998 -0.70834,-8.124997 -0.83333,-4.041665 -2.70833,-8.541663 -1.875,-4.499998 -3,-6.791664 l 10.16667,-3.958331 q -2,-0.791667 -2.79167,-1.041667 -0.79167,-0.25 -1.20833,-0.374999 0.375,-0.04167 1.41666,-0.08333 1.08334,-0.04167 2.58334,-0.04167 0.54166,0 1.66666,0.04167 1.16667,0.04167 2.16667,0.08333 l 4,-1.541666 q 0.0417,0 0.375,1.874999 z m 0.25,28.749988 q -0.45834,-0.333333 -1.125,-0.666667 -0.25,0.666667 -0.41667,1.041667 -0.16667,0.333333 -0.5,1.083332 0.5,-0.374999 1,-0.708333 0.54167,-0.374999 1.04167,-0.749999 z m 1.70833,-1.458333 q 6,-5.291664 6.125,-10.333329 0,-5.749998 -7.25,-10.999995 0.5,5.499997 0.5,9.124996 0,5.416664 -0.91667,9.124996 -0.45833,1.583333 -0.875,2.666666 1.375,0.333333 2.41667,0.416666 z"
         style="font-family:Karate;-inkscape-font-specification:Karate"
         id="path174318" />
      <path
         d="m 196.40468,84.460933 q -0.5,-1.124999 -1.45833,-2.708332 -1.70833,-2.749999 -5.54167,-6.166664 -2.62499,4.624998 -3.74999,6.666664 -1.08334,2.041665 -2.5,5.291664 4.95833,-0.583333 13.24999,-3.083332 z m -15.62499,12.291662 q -0.0833,1.791666 -0.0833,5.458335 0,2.87499 0.125,5.24999 0.125,2.375 0.20834,3.375 l -15.5,-3.25 q 0.125,-1.16666 0.54167,-3.70833 0.41667,-2.54166 1.33333,-6.333329 -2.33333,-0.208333 -4.16666,-0.541667 -1.79167,-0.333333 -2.5,-0.499999 l 3.75,-12.458328 q 0.75,0.333333 2.875,1.083332 2.125,0.708333 4.12499,1.208333 0.83334,-1.458332 2.20834,-3.291665 3.33333,-4.083332 12.20833,-10.416662 -1.54167,-1.208333 -2.45834,-1.875 -0.91666,-0.708333 -1.41666,-1.083332 -0.5,-0.375 -0.75,-0.541667 l 16.49999,-8.624996 q 0.95833,1.249999 2.875,4.333331 1.95833,3.041666 4.125,7.83333 2.20833,4.791665 2.70833,9.416663 0.0833,0.666666 0.0833,2.041666 0,3.749998 -1.08333,8.291663 -1.08333,4.499998 -2.41667,8.041667 -1.29166,3.49999 -2.41666,5.99999 -1.125,2.5 -1.58333,3.45834 v -2.25 q 0,-4.83333 -0.5,-10.124999 -0.5,-5.333331 -2.04167,-10.083329 -7.91666,6.166664 -16.74999,9.291663 z"
         style="font-family:Karate;-inkscape-font-specification:Karate"
         id="path174320" />
      <path
         d="m 226.07133,76.127603 q -0.75,0.08333 -2.29166,0.08333 -4.79167,0 -9.58333,-0.916666 -4.79167,-0.958333 -7.04166,-1.583332 l 7.66666,-12.541662 q 1.58333,0.791666 4.95833,2.166666 3.375,1.374999 7.58333,2.291666 0.20833,-1.625 0.25,-2.499999 0.0417,-0.916667 0.125,-2.458333 0.125,-1.583332 0.125,-1.833332 0,-0.291667 0,-0.458333 0.375,0.791666 1.41667,2.958332 1.04166,2.124999 2.25,4.791664 7.74999,0 14.04166,-1.124999 6.33333,-1.125 8.99999,-1.874999 -2.70833,1.833332 -8.54166,5.249997 -5.79166,3.374999 -11.91666,5.708331 2.16666,6.999997 2.29166,11.749995 0,4.583332 -1.875,10.20833 -1.83333,5.624998 -3.62499,9.291658 -1.75,3.625 -2.66667,5.16667 l -14.54166,-7.25 q 1.66667,-1.625 4.70833,-5.833329 3.04167,-4.249998 5.20833,-10.874995 1.20834,-3.624999 2.45833,-10.416663 z"
         style="font-family:Karate;-inkscape-font-specification:Karate"
         id="path174322" />
      <path
         d="m 270.61299,82.669267 19.62499,-4.083332 q -0.375,2.583333 -0.95834,6.791664 -0.58333,4.208332 -0.58333,5.166665 0,-0.166667 -4.70833,-0.666667 -4.70833,-0.541666 -14.12499,-1.458332 -1.58334,6.70833 -4.625,11.833325 6.83333,-2.958329 10.41666,-3.416662 2.04167,-0.25 6.375,-0.25 4.625,0 7.95833,0.291667 3.375,0.249999 4.95833,0.416666 l -8.04166,13.624999 q -0.375,-0.45834 -1.5,-1.375 -1.125,-0.95834 -3.54167,-2.16667 -2.41666,-1.25 -5.54166,-1.83333 -3.5,-0.66667 -8,-0.66667 -3.33333,0 -6.75,0.41667 -1.91666,2.20833 -3.58333,3.54166 -1.625,1.29167 -2.29166,1.66667 0,0 0.83333,-4.41667 -2.08333,0.33334 -2.95833,0.58334 -0.875,0.20833 -1.29167,0.33333 -0.375,0 4.5,-2.54167 1.20833,-7.499992 1.20833,-13.74999 0,-1.124999 -0.0417,-1.833332 0,-0.708333 -0.0417,-1.583333 -2.375,-0.208333 -3.70833,-0.333333 -1.29167,-0.125 -1.875,-0.166667 -0.54167,-0.04167 -0.83334,-0.08333 l 6.25,-1.291666 q -0.125,-1.666666 -0.54167,-2.999999 -0.79166,-3.791665 -2.70833,-7.999996 -1.25,-0.208334 -2,-0.333334 -0.70833,-0.166666 -1,-0.208333 0.125,0 2.58334,-0.5 -1.04167,-2.499999 -1.83334,-4.041665 -0.79166,-1.583332 -1.16666,-2.249999 l 16.91666,-6.916663 q 0.25,0.958332 0.70833,3.333331 0.45833,2.374999 0.95833,5.708331 1.16667,-0.416666 1.91667,-0.666666 0.75,-0.291667 1.79166,-0.708333 4.20834,-1.666666 6.83333,-4.416665 2.625,-2.791665 3.54167,-4.291665 l 10.66666,10.666663 q -0.95833,0.499999 -3.25,1.583332 -2.25,1.083333 -6.16666,2.458332 -3.875,1.333333 -7.375,1.833333 -1.91666,0.291667 -4.79166,0.291667 -1.54167,0 -2.29167,-0.08333 0.16667,2.999999 0.16667,4.666665 0,1.458333 -0.0833,2.124999 z"
         style="font-family:Karate;-inkscape-font-specification:Karate"
         id="path174324" />
      <path
         d="m 335.90462,77.544269 q 0.125,7.791664 3.91666,13.958328 3.83333,6.124997 8.875,10.166663 5.04166,4 8.83333,6 3.83333,2 5.49999,2.66666 -2.99999,0 -9.70832,-0.75 -6.70833,-0.79166 -15.79166,-3.91666 -9.04167,-3.125 -15.83333,-10.166665 -6.79167,-7.041664 -6.79167,-18.458326 0,-14.958327 11.33333,-22.62499 11.375,-7.666664 22.79166,-9.624996 11.45833,-1.999999 17.08333,-2.041666 -1.875,0.541667 -6.16667,2.374999 -4.25,1.833333 -9.91666,5.916664 -5.66666,4.041665 -9.91666,10.749996 -4.20833,6.666664 -4.20833,15.749993 z"
         style="font-family:Karate;-inkscape-font-specification:Karate"
         id="path174326" />
      <path
         d="m 401.52959,84.460933 q -0.5,-1.124999 -1.45833,-2.708332 -1.70834,-2.749999 -5.54167,-6.166664 -2.625,4.624998 -3.75,6.666664 -1.08333,2.041665 -2.49999,5.291664 4.95833,-0.583333 13.24999,-3.083332 z M 385.9046,96.752595 q -0.0833,1.791666 -0.0833,5.458335 0,2.87499 0.125,5.24999 0.125,2.375 0.20834,3.375 l -15.5,-3.25 q 0.125,-1.16666 0.54167,-3.70833 0.41667,-2.54166 1.33333,-6.333329 -2.33333,-0.208333 -4.16666,-0.541667 -1.79167,-0.333333 -2.5,-0.499999 l 3.75,-12.458328 q 0.75,0.333333 2.875,1.083332 2.12499,0.708333 4.12499,1.208333 0.83334,-1.458332 2.20834,-3.291665 3.33333,-4.083332 12.20832,-10.416662 -1.54166,-1.208333 -2.45833,-1.875 -0.91666,-0.708333 -1.41666,-1.083332 -0.5,-0.375 -0.75,-0.541667 l 16.49999,-8.624996 q 0.95833,1.249999 2.875,4.333331 1.95833,3.041666 4.125,7.83333 2.20833,4.791665 2.70833,9.416663 0.0833,0.666666 0.0833,2.041666 0,3.749998 -1.08333,8.291663 -1.08333,4.499998 -2.41667,8.041667 -1.29166,3.49999 -2.41666,5.99999 -1.125,2.5 -1.58334,3.45834 v -2.25 q 0,-4.83333 -0.5,-10.124999 -0.49999,-5.333331 -2.04166,-10.083329 -7.91666,6.166664 -16.74999,9.291663 z"
         style="font-family:Karate;-inkscape-font-specification:Karate"
         id="path174328" />
      <path
         d="m 442.23791,94.127596 q -2.79167,-5.458331 -5.83334,-8.624997 -2.29166,-2.374999 -4.41666,-3.999998 -0.16667,1.583333 -0.33333,2.374999 -1.04167,5.999997 -3.41667,10.999995 -2.375,4.958332 -4.91666,8.208335 -2.54167,3.20833 -4.41667,4.95833 -1.83333,1.70833 -2.625,2.29166 0.41667,-1.45833 1.25,-4.91666 0.875,-3.5 1.70833,-8.749999 0.875,-5.249998 0.875,-10.124995 0,-2.916666 -0.33333,-4.958332 -0.66667,-4.166665 -3.58333,-9.666662 -1.20833,-0.541667 -2.25,-0.958333 -1,-0.458333 -1.33333,-0.583333 0.25,-0.04167 0.70833,-0.04167 0.45833,-0.04167 1.91667,-0.04167 -0.83334,-1.666666 -1.45834,-2.666665 -0.625,-1 -0.91666,-1.416666 l 17.66666,-6.583331 q 0.125,0.583333 0.375,2.249999 0.29166,1.624999 0.58333,4.291665 0.33333,2.666666 0.5,5.416664 7.45833,1.583333 10.91666,4.083332 2.16667,-6.458331 5.5,-10.708329 3.375,-4.249998 5.16666,-5.833331 -0.58333,2.208333 -1.5,7.208331 -0.875,4.999998 -0.875,10.541662 0,5.791664 1.25,9.666663 2.91667,4.499998 4.875,8.666663 1.66667,2.249999 3.20833,4.208331 1.58334,1.91667 2.25,2.70833 l -13.99999,8.95833 q -1.08333,-2.125 -3.125,-6.79166 -2,-4.708333 -3.41666,-10.166664 z"
         style="font-family:Karate;-inkscape-font-specification:Karate"
         id="path174330" />
      <path
         d="m 477.82123,60.835943 q 0.375,-0.375 0.45834,-0.5 0.0833,-0.125 0.125,-0.166666 -0.0417,0 -0.16667,0.749999 6.75,0.958333 13.125,3.416665 6.41666,2.416666 11.04166,7.624997 4.66666,5.208331 4.66666,13.291661 0,8.749997 -5.375,14.124994 -5.37499,5.374997 -12.62499,7.874997 -7.25,2.45833 -12.625,3.08333 -5.33333,0.625 -7.74999,0.66667 1.16666,-0.33333 3.95833,-1.5 2.79167,-1.16667 5.91666,-3.16667 l -13.99999,4.16667 q -0.41667,-2.125 -1.08333,-6.91666 -0.625,-4.833336 -0.625,-10.083334 0,-5.416664 0.95833,-9.124996 1.29167,-5.124998 4.75,-10.791662 3.5,-5.666665 7.45833,-10.708329 -1.83333,-1.125 -3.16667,-1.708333 -1.33333,-0.625 -1.875,-0.833333 2.79167,0 6.83333,0.5 z m 2.04167,44.624977 q 5,-3.62499 8.20833,-8.666659 3.20833,-5.041664 3.20833,-11.874995 0,-3.666665 -1.25,-6.95833 -1.25,-3.291666 -3.25,-5.874998 -1.95833,-2.583332 -4.41666,-4.708331 -2.45833,-2.124999 -4.625,-3.458332 -1.625,8.791663 -1.625,16.124993 0,4.458332 0.75,8.166663 2.33333,11.583329 3,17.249989 z"
         style="font-family:Karate;-inkscape-font-specification:Karate"
         id="path174332" />
      <path
         d="m 513.02953,82.419267 q -0.70833,-3.083332 -2,-6.291664 -1.29166,-3.208332 -2.45833,-5.624997 -1.125,-2.416666 -1.66667,-3.416666 l 19.20833,-6.916663 q 0.125,1.374999 0.29167,4.708331 0.20833,3.291665 0.20833,7.374997 0,7.666663 -0.83333,12.499995 -1.375,7.749996 -4.54167,13.499994 -3.125,5.708326 -5.79166,8.541666 -2.66667,2.79166 -3.91667,3.70833 0.58333,-2.58333 1.41667,-8.20833 0.875,-5.624999 0.875,-11.58333 0,-5.124997 -0.79167,-8.291663 z"
         style="font-family:Karate;-inkscape-font-specification:Karate"
         id="path174334" />
      <path
         d="m 562.27953,84.460933 q -0.5,-1.124999 -1.45833,-2.708332 -1.70834,-2.749999 -5.54167,-6.166664 -2.625,4.624998 -3.75,6.666664 -1.08333,2.041665 -2.5,5.291664 4.95834,-0.583333 13.25,-3.083332 z m -15.62499,12.291662 q -0.0833,1.791666 -0.0833,5.458335 0,2.87499 0.125,5.24999 0.125,2.375 0.20833,3.375 l -15.49999,-3.25 q 0.125,-1.16666 0.54167,-3.70833 0.41666,-2.54166 1.33333,-6.333329 -2.33333,-0.208333 -4.16666,-0.541667 -1.79167,-0.333333 -2.5,-0.499999 l 3.75,-12.458328 q 0.74999,0.333333 2.87499,1.083332 2.125,0.708333 4.125,1.208333 0.83334,-1.458332 2.20833,-3.291665 3.33334,-4.083332 12.20833,-10.416662 -1.54166,-1.208333 -2.45833,-1.875 -0.91667,-0.708333 -1.41667,-1.083332 -0.5,-0.375 -0.75,-0.541667 l 16.5,-8.624996 q 0.95833,1.249999 2.875,4.333331 1.95833,3.041666 4.125,7.83333 2.20833,4.791665 2.70833,9.416663 0.0833,0.666666 0.0833,2.041666 0,3.749998 -1.08333,8.291663 -1.08334,4.499998 -2.41667,8.041667 -1.29166,3.49999 -2.41666,5.99999 -1.125,2.5 -1.58334,3.45834 v -2.25 q 0,-4.83333 -0.5,-10.124999 -0.5,-5.333331 -2.04166,-10.083329 -7.91667,6.166664 -16.74999,9.291663 z"
         style="font-family:Karate;-inkscape-font-specification:Karate"
         id="path174336" />
      <path
         d="m 588.82118,85.752599 q 0.0833,10.541662 7.70833,16.624991 7.625,6.04167 12.66666,7.95833 -2.24999,0 -7.37499,-0.58333 -5.08333,-0.625 -11.875,-2.95833 -6.79166,-2.375 -11.87499,-7.583333 -5.04167,-5.208331 -5.04167,-13.791661 0,-11.208329 8.5,-16.958326 8.54166,-5.791665 17.12499,-7.291664 8.58333,-1.499999 12.83333,-1.541666 -2.5,0.708333 -7.58333,3.249999 -5.04166,2.541665 -10.08333,8.374996 -5,5.833331 -5,14.499994 z"
         style="font-family:Karate;-inkscape-font-specification:Karate"
         id="path174338" />
    </g>
    <path
       id="rect16300-4"
       style="fill:#ffffff;stroke-width:0.213314;fill-opacity:1"
       d="m 82.393097,4.9917792 2.250131,1.1400203 -6.454802,2.6994644 c 1.555298,-1.2319533 2.566033,-2.596502 4.204671,-3.8394847 z"
       sodipodi:nodetypes="cccc" />
    <ellipse
       style="fill:#bc002d;fill-opacity:1;stroke:none;stroke-width:0.355898;stroke-miterlimit:4;stroke-dasharray:none"
       id="path16999"
       cx="139.27728"
       cy="3.9541864"
       rx="3.4658992"
       ry="3.3723109" />
    <g
       aria-label="École de"
       transform="matrix(0.17714888,0,0,0.17714888,21.160349,-24.4456)"
       id="text81642"
       style="font-size:29.7494px;line-height:1.25;font-family:'DejaVu Sans';-inkscape-font-specification:'DejaVu Sans, Normal';letter-spacing:0.756131px;word-spacing:0px;white-space:pre;shape-inside:url(#rect81644);fill:#ffffff">
      <path
         d="m 24.904287,159.64862 q 1.48747,0 1.48747,1.99321 v 3.36168 q 0,1.96346 -1.45772,1.96346 -1.48747,0 -1.48747,-1.96346 v -0.20824 h -2.528699 v 4.25416 h 7.615846 v -1.54697 q 0,-1.99321 1.48747,-1.99321 1.48747,0 1.48747,1.99321 v 4.52191 H 17.496687 q -1.96346,0 -1.96346,-1.48747 0,-1.48747 1.96346,-1.48747 h 0.446241 v -11.39402 h -0.446241 q -1.96346,0 -1.96346,-1.48747 0,-1.48747 1.96346,-1.48747 h 13.35748 v 4.46241 q 0,1.99321 -1.48747,1.99321 -1.48747,0 -1.48747,-1.99321 v -1.48747 h -6.961359 v 4.19467 h 2.528699 v -0.20825 q 0,-1.99321 1.45772,-1.99321 z m 2.647697,-10.44204 -3.95667,3.30218 q -0.565239,0.476 -0.951981,0.476 -0.446241,0 -0.773484,-0.32725 -0.327244,-0.32724 -0.327244,-0.74373 0,-0.47599 0.684236,-1.07098 l 3.95667,-3.33193 q 0.565239,-0.44625 0.951981,-0.44625 0.475991,0 0.773485,0.32725 0.327243,0.29749 0.327243,0.74373 0,0.53549 -0.684236,1.07098 z"
         style="font-weight:bold;font-family:'Tlwg Typo';-inkscape-font-specification:'Tlwg Typo Bold'"
         id="path174341" />
      <path
         d="m 42.974522,161.61208 q -2.112207,0 -3.391431,1.18998 -1.249475,1.16022 -1.249475,3.06419 0,3.65917 5.235894,3.65917 0.624738,0 1.160227,-0.0298 0.535489,-0.0595 0.922231,-0.0892 0.386743,-0.0595 0.743735,-0.17849 0.356993,-0.119 0.53549,-0.1785 0.208245,-0.0595 0.446241,-0.20824 0.267744,-0.1785 0.327243,-0.20825 0.08925,-0.0595 0.267745,-0.238 l 0.208245,-0.17849 q 0.386743,-0.357 0.892482,-0.357 0.594988,0 1.041229,0.44625 0.446241,0.44624 0.446241,1.07097 0,1.18998 -1.903961,2.17171 -1.963461,0.95198 -5.295393,0.95198 -1.99321,0 -3.510429,-0.47599 -1.48747,-0.50574 -2.320454,-1.21972 -0.832983,-0.71399 -1.368472,-1.66597 -0.50574,-0.95198 -0.654487,-1.72547 -0.148747,-0.77348 -0.148747,-1.54696 0,-3.18319 2.112208,-5.20615 2.141956,-2.02296 5.503638,-2.02296 2.558449,0 4.283914,0.89248 0.267745,-0.89248 1.130477,-0.89248 1.427971,0 1.427971,1.96346 v 2.29071 q 0,1.96346 -1.48747,1.96346 -0.684236,0 -1.041229,-0.32725 -0.327243,-0.32724 -0.47599,-1.10073 -0.148747,-0.71398 -0.684236,-1.07097 -1.219726,-0.74374 -3.153437,-0.74374 z"
         style="font-weight:bold;font-family:'Tlwg Typo';-inkscape-font-specification:'Tlwg Typo Bold'"
         id="path174343" />
      <path
         d="m 61.372001,158.63714 q 3.153436,0 5.354892,2.02296 2.231205,2.02296 2.231205,4.90865 0,2.91544 -2.231205,4.9384 -2.231205,1.99321 -5.44414,1.99321 -3.212935,0 -5.44414,-1.99321 -2.231205,-2.02296 -2.231205,-4.9384 0,-2.94519 2.231205,-4.9384 2.231205,-1.99321 5.533388,-1.99321 z m -0.02975,2.97494 q -2.02296,0 -3.391432,1.13048 -1.368472,1.13048 -1.368472,2.82619 0,1.66597 1.338723,2.82619 1.368472,1.13048 3.361682,1.13048 1.99321,0 3.331933,-1.13048 1.368472,-1.16022 1.368472,-2.82619 0,-1.66597 -1.368472,-2.79644 -1.338723,-1.16023 -3.272434,-1.16023 z"
         style="font-weight:bold;font-family:'Tlwg Typo';-inkscape-font-specification:'Tlwg Typo Bold'"
         id="path174345" />
      <path
         d="m 74.771584,172.02437 q -1.96346,0 -1.96346,-1.48747 0,-1.48747 1.96346,-1.48747 h 3.629427 v -12.61374 h -2.320453 q -1.99321,0 -1.99321,-1.48747 0,-1.48747 1.99321,-1.48747 h 5.295393 v 15.58868 h 3.629427 q 1.96346,0 1.96346,1.48747 0,1.48747 -1.96346,1.48747 z"
         style="font-weight:bold;font-family:'Tlwg Typo';-inkscape-font-specification:'Tlwg Typo Bold'"
         id="path174347" />
      <path
         d="m 98.672698,169.52542 q 1.576722,0 3.510432,-0.47599 1.93371,-0.50574 2.32045,-0.50574 0.59499,0 1.01148,0.44624 0.41649,0.41649 0.41649,1.04123 0,0.86273 -1.04123,1.33872 -1.01148,0.44624 -2.97494,0.77349 -1.933709,0.35699 -3.510427,0.35699 -3.45093,0 -5.652386,-1.93371 -2.201455,-1.93371 -2.201455,-4.96815 0,-2.94519 2.201455,-4.9384 2.231205,-2.02296 5.47389,-2.02296 3.331933,0 5.503643,2.02296 2.20145,2.02296 2.20145,5.08715 v 1.16022 H 93.793796 q 1.01148,2.61795 4.878902,2.61795 z m -4.789653,-5.23589 h 8.746325 q -0.35699,-1.21973 -1.54697,-1.93371 -1.189977,-0.74374 -2.826194,-0.74374 -1.636217,0 -2.855942,0.74374 -1.189976,0.74373 -1.517219,1.93371 z"
         style="font-weight:bold;font-family:'Tlwg Typo';-inkscape-font-specification:'Tlwg Typo Bold'"
         id="path174349" />
      <path
         d="m 127.76257,165.50925 q 0,-1.75521 0.74373,-3.27243 0.77349,-1.51722 2.49895,-2.55845 1.72547,-1.07098 4.13517,-1.07098 2.5882,0 4.46241,1.48747 v -3.68892 h -0.47599 q -1.96346,0 -1.96346,-1.48747 0,-1.45772 1.96346,-1.45772 h 3.45093 v 15.58868 h 0.47599 q 1.96346,0 1.96346,1.48747 0,1.48747 -1.96346,1.48747 h -3.45093 v -1.04123 q -2.14196,1.45772 -4.49216,1.45772 -3.54018,0 -5.44414,-2.08246 -1.90396,-2.08245 -1.90396,-4.84915 z m 11.84026,0.0595 q 0,-0.59499 -0.20825,-1.21972 -0.20824,-0.65449 -0.68423,-1.27923 -0.44624,-0.65449 -1.39822,-1.07098 -0.92224,-0.41649 -2.17171,-0.41649 -1.24948,0 -2.17171,0.41649 -0.89248,0.41649 -1.36847,1.07098 -0.44624,0.65449 -0.65449,1.27923 -0.20824,0.59498 -0.20824,1.16022 0,1.69572 1.21972,2.8262 1.24948,1.13047 3.21294,1.13047 1.24947,0 2.1717,-0.41649 0.92224,-0.41649 1.36848,-1.07098 0.47599,-0.65448 0.68423,-1.24947 0.20825,-0.62474 0.20825,-1.16023 z"
         style="font-weight:bold;font-family:'Tlwg Typo';-inkscape-font-specification:'Tlwg Typo Bold'"
         id="path174351" />
      <path
         d="m 154.48988,169.52542 q 1.57672,0 3.51043,-0.47599 1.93371,-0.50574 2.32045,-0.50574 0.59499,0 1.01148,0.44624 0.4165,0.41649 0.4165,1.04123 0,0.86273 -1.04123,1.33872 -1.01148,0.44624 -2.97494,0.77349 -1.93371,0.35699 -3.51043,0.35699 -3.45093,0 -5.65239,-1.93371 -2.20145,-1.93371 -2.20145,-4.96815 0,-2.94519 2.20145,-4.9384 2.23121,-2.02296 5.47389,-2.02296 3.33193,0 5.50364,2.02296 2.20146,2.02296 2.20146,5.08715 v 1.16022 h -12.13776 q 1.01148,2.61795 4.8789,2.61795 z m -4.78965,-5.23589 h 8.74632 q -0.35699,-1.21973 -1.54697,-1.93371 -1.18997,-0.74374 -2.82619,-0.74374 -1.63622,0 -2.85594,0.74374 -1.18998,0.74373 -1.51722,1.93371 z"
         style="font-weight:bold;font-family:'Tlwg Typo';-inkscape-font-specification:'Tlwg Typo Bold'"
         id="path174353" />
    </g>
    <g
       aria-label="K"
       transform="matrix(0.29944164,0,0,0.29944164,31.029417,-16.015192)"
       id="text94588"
       style="font-size:80px;line-height:1.25;letter-spacing:0px;word-spacing:0px;white-space:pre;shape-inside:url(#rect94590);fill:#ffffff">
      <path
         d="m -59.353516,96.49672 q 11.015625,4.57031 14.570313,7.38281 5,3.86719 9.648437,10.625 4.648438,6.71875 6.757813,10.39063 l -19.101563,4.96094 q -1.328125,-2.92969 -4.375,-8.86719 -3.046875,-5.97656 -6.054687,-10.3125 -3.359375,-4.84375 -8.945313,-10.23438 -0.585937,0.19532 -1.445312,0.625 -1.40625,4.45313 -4.101563,9.17969 -2.695312,4.72656 -5.859375,9.14063 -3.125,4.375 -5.039062,6.71875 -1.914063,2.30468 -2.773438,3.28125 0.625,-2.73438 1.601563,-8.86719 0.976562,-6.13281 1.289062,-13.20313 -4.257812,1.64063 -5.742187,2.22657 -1.484375,0.58593 -2.34375,0.89843 0.898437,-0.58593 3.242187,-2.22656 2.382813,-1.67969 4.84375,-3.63281 0,-6.05469 -0.9375,-10.234377 -1.015625,-4.882813 -3.59375,-10.625 -2.578125,-5.742188 -4.101562,-8.59375 l 23.046875,-8.632813 q 0.507812,2.65625 1.289062,8.515625 0.78125,5.820313 0.78125,12.695313 v 2.304687 q 0.195313,-0.273437 0.585938,-0.742187 0.429687,-0.507813 0.78125,-0.9375 2.460937,-3.164063 4.335937,-7.34375 1.875,-4.21875 2.851563,-7.34375 0.976562,-3.164063 1.289062,-4.492188 l 18.164063,4.960938 q -1.875,3.203125 -6.132813,9.179687 -4.257812,5.9375 -9.296875,9.921875 -1.875,1.5625 -5.234375,3.28125 z"
         style="font-family:Karate;-inkscape-font-specification:Karate"
         id="path174356" />
    </g>
  </g>
</svg>
